<mxfile host="Electron" agent="Mozilla/5.0 (Windows NT 10.0; Win64; x64) AppleWebKit/537.36 (KHTML, like Gecko) draw.io/24.7.8 Chrome/128.0.6613.36 Electron/32.0.1 Safari/537.36" version="24.7.8" pages="6">
  <diagram name="login" id="SnjHP_tmjjaE1rrj2DOq">
    <mxGraphModel dx="880" dy="572" grid="1" gridSize="10" guides="1" tooltips="1" connect="1" arrows="1" fold="1" page="1" pageScale="1" pageWidth="827" pageHeight="1169" background="#FFFFFF" math="0" shadow="0">
      <root>
        <mxCell id="0" />
        <mxCell id="1" parent="0" />
        <mxCell id="gkY0Bc8icigIVwQfCu7p-46" value="Login&amp;nbsp; Flowchart" style="shape=umlFrame;whiteSpace=wrap;html=1;pointerEvents=0;width=240;height=70;" parent="1" vertex="1">
          <mxGeometry x="40" y="40" width="760" height="1090" as="geometry" />
        </mxCell>
        <mxCell id="gkY0Bc8icigIVwQfCu7p-121" value="" style="edgeStyle=orthogonalEdgeStyle;rounded=0;orthogonalLoop=1;jettySize=auto;html=1;" parent="1" source="gkY0Bc8icigIVwQfCu7p-114" target="gkY0Bc8icigIVwQfCu7p-120" edge="1">
          <mxGeometry relative="1" as="geometry" />
        </mxCell>
        <mxCell id="gkY0Bc8icigIVwQfCu7p-114" value="MULAI" style="strokeWidth=2;html=1;shape=mxgraph.flowchart.start_1;whiteSpace=wrap;" parent="1" vertex="1">
          <mxGeometry x="364" y="114" width="100" height="60" as="geometry" />
        </mxCell>
        <mxCell id="gkY0Bc8icigIVwQfCu7p-126" value="" style="edgeStyle=orthogonalEdgeStyle;rounded=0;orthogonalLoop=1;jettySize=auto;html=1;" parent="1" source="gkY0Bc8icigIVwQfCu7p-120" target="gkY0Bc8icigIVwQfCu7p-125" edge="1">
          <mxGeometry relative="1" as="geometry" />
        </mxCell>
        <mxCell id="gkY0Bc8icigIVwQfCu7p-120" value="Input&lt;div&gt;Email , Password&lt;/div&gt;" style="shape=parallelogram;perimeter=parallelogramPerimeter;whiteSpace=wrap;html=1;fixedSize=1;strokeWidth=2;" parent="1" vertex="1">
          <mxGeometry x="336" y="234" width="156" height="60" as="geometry" />
        </mxCell>
        <mxCell id="gkY0Bc8icigIVwQfCu7p-130" value="" style="edgeStyle=orthogonalEdgeStyle;rounded=0;orthogonalLoop=1;jettySize=auto;html=1;" parent="1" source="gkY0Bc8icigIVwQfCu7p-125" target="gkY0Bc8icigIVwQfCu7p-129" edge="1">
          <mxGeometry relative="1" as="geometry" />
        </mxCell>
        <mxCell id="gkY0Bc8icigIVwQfCu7p-125" value="cari user berdasarkan email" style="shape=process;whiteSpace=wrap;html=1;backgroundOutline=1;strokeWidth=2;" parent="1" vertex="1">
          <mxGeometry x="354" y="360" width="120" height="60" as="geometry" />
        </mxCell>
        <mxCell id="gkY0Bc8icigIVwQfCu7p-127" value="&lt;div&gt;&lt;br&gt;&lt;/div&gt;tabel&lt;div&gt;user&lt;/div&gt;" style="strokeWidth=2;html=1;shape=mxgraph.flowchart.database;whiteSpace=wrap;" parent="1" vertex="1">
          <mxGeometry x="190" y="360" width="60" height="60" as="geometry" />
        </mxCell>
        <mxCell id="gkY0Bc8icigIVwQfCu7p-128" style="edgeStyle=orthogonalEdgeStyle;rounded=0;orthogonalLoop=1;jettySize=auto;html=1;exitX=0;exitY=0.5;exitDx=0;exitDy=0;entryX=1;entryY=0.5;entryDx=0;entryDy=0;entryPerimeter=0;" parent="1" source="gkY0Bc8icigIVwQfCu7p-125" target="gkY0Bc8icigIVwQfCu7p-127" edge="1">
          <mxGeometry relative="1" as="geometry" />
        </mxCell>
        <mxCell id="gkY0Bc8icigIVwQfCu7p-136" value="" style="edgeStyle=orthogonalEdgeStyle;rounded=0;orthogonalLoop=1;jettySize=auto;html=1;" parent="1" source="gkY0Bc8icigIVwQfCu7p-129" target="gkY0Bc8icigIVwQfCu7p-135" edge="1">
          <mxGeometry relative="1" as="geometry" />
        </mxCell>
        <mxCell id="gkY0Bc8icigIVwQfCu7p-145" value="ya" style="edgeLabel;html=1;align=center;verticalAlign=middle;resizable=0;points=[];" parent="gkY0Bc8icigIVwQfCu7p-136" vertex="1" connectable="0">
          <mxGeometry x="-0.0556" y="2" relative="1" as="geometry">
            <mxPoint as="offset" />
          </mxGeometry>
        </mxCell>
        <mxCell id="gkY0Bc8icigIVwQfCu7p-129" value="user di temukan" style="rhombus;whiteSpace=wrap;html=1;strokeWidth=2;" parent="1" vertex="1">
          <mxGeometry x="374" y="481" width="80" height="80" as="geometry" />
        </mxCell>
        <mxCell id="gkY0Bc8icigIVwQfCu7p-138" value="" style="edgeStyle=orthogonalEdgeStyle;rounded=0;orthogonalLoop=1;jettySize=auto;html=1;entryX=0.5;entryY=0;entryDx=0;entryDy=0;" parent="1" source="gkY0Bc8icigIVwQfCu7p-135" target="gkY0Bc8icigIVwQfCu7p-137" edge="1">
          <mxGeometry relative="1" as="geometry">
            <mxPoint x="414" y="750" as="targetPoint" />
          </mxGeometry>
        </mxCell>
        <mxCell id="gkY0Bc8icigIVwQfCu7p-135" value="Hash cek input password dan user.password" style="shape=process;whiteSpace=wrap;html=1;backgroundOutline=1;strokeWidth=2;" parent="1" vertex="1">
          <mxGeometry x="354" y="620" width="120" height="60" as="geometry" />
        </mxCell>
        <mxCell id="gkY0Bc8icigIVwQfCu7p-147" value="" style="edgeStyle=orthogonalEdgeStyle;rounded=0;orthogonalLoop=1;jettySize=auto;html=1;" parent="1" source="gkY0Bc8icigIVwQfCu7p-137" target="gkY0Bc8icigIVwQfCu7p-146" edge="1">
          <mxGeometry relative="1" as="geometry" />
        </mxCell>
        <mxCell id="gkY0Bc8icigIVwQfCu7p-148" value="ya" style="edgeLabel;html=1;align=center;verticalAlign=middle;resizable=0;points=[];" parent="gkY0Bc8icigIVwQfCu7p-147" vertex="1" connectable="0">
          <mxGeometry x="-0.2561" relative="1" as="geometry">
            <mxPoint as="offset" />
          </mxGeometry>
        </mxCell>
        <mxCell id="gkY0Bc8icigIVwQfCu7p-137" value="password&lt;div&gt;valid&lt;/div&gt;" style="rhombus;whiteSpace=wrap;html=1;strokeWidth=2;" parent="1" vertex="1">
          <mxGeometry x="374" y="721" width="80" height="80" as="geometry" />
        </mxCell>
        <mxCell id="gkY0Bc8icigIVwQfCu7p-142" style="edgeStyle=orthogonalEdgeStyle;rounded=0;orthogonalLoop=1;jettySize=auto;html=1;exitX=0.5;exitY=0;exitDx=0;exitDy=0;exitPerimeter=0;entryX=1;entryY=0.25;entryDx=0;entryDy=0;" parent="1" source="gkY0Bc8icigIVwQfCu7p-139" target="gkY0Bc8icigIVwQfCu7p-120" edge="1">
          <mxGeometry relative="1" as="geometry">
            <Array as="points">
              <mxPoint x="620" y="250" />
            </Array>
          </mxGeometry>
        </mxCell>
        <mxCell id="gkY0Bc8icigIVwQfCu7p-139" value="pesan error" style="strokeWidth=2;html=1;shape=mxgraph.flowchart.display;whiteSpace=wrap;" parent="1" vertex="1">
          <mxGeometry x="570" y="491" width="100" height="60" as="geometry" />
        </mxCell>
        <mxCell id="gkY0Bc8icigIVwQfCu7p-140" style="edgeStyle=orthogonalEdgeStyle;rounded=0;orthogonalLoop=1;jettySize=auto;html=1;entryX=0;entryY=0.5;entryDx=0;entryDy=0;entryPerimeter=0;" parent="1" source="gkY0Bc8icigIVwQfCu7p-129" target="gkY0Bc8icigIVwQfCu7p-139" edge="1">
          <mxGeometry relative="1" as="geometry" />
        </mxCell>
        <mxCell id="gkY0Bc8icigIVwQfCu7p-143" value="tidak" style="edgeLabel;html=1;align=center;verticalAlign=middle;resizable=0;points=[];" parent="gkY0Bc8icigIVwQfCu7p-140" vertex="1" connectable="0">
          <mxGeometry x="-0.2284" y="-1" relative="1" as="geometry">
            <mxPoint as="offset" />
          </mxGeometry>
        </mxCell>
        <mxCell id="gkY0Bc8icigIVwQfCu7p-141" style="edgeStyle=orthogonalEdgeStyle;rounded=0;orthogonalLoop=1;jettySize=auto;html=1;exitX=1;exitY=0.5;exitDx=0;exitDy=0;entryX=0.5;entryY=1;entryDx=0;entryDy=0;entryPerimeter=0;" parent="1" source="gkY0Bc8icigIVwQfCu7p-137" target="gkY0Bc8icigIVwQfCu7p-139" edge="1">
          <mxGeometry relative="1" as="geometry" />
        </mxCell>
        <mxCell id="gkY0Bc8icigIVwQfCu7p-144" value="tidak" style="edgeLabel;html=1;align=center;verticalAlign=middle;resizable=0;points=[];" parent="gkY0Bc8icigIVwQfCu7p-141" vertex="1" connectable="0">
          <mxGeometry x="-0.7374" y="-1" relative="1" as="geometry">
            <mxPoint as="offset" />
          </mxGeometry>
        </mxCell>
        <mxCell id="gkY0Bc8icigIVwQfCu7p-150" value="" style="edgeStyle=orthogonalEdgeStyle;rounded=0;orthogonalLoop=1;jettySize=auto;html=1;" parent="1" source="gkY0Bc8icigIVwQfCu7p-146" target="gkY0Bc8icigIVwQfCu7p-149" edge="1">
          <mxGeometry relative="1" as="geometry" />
        </mxCell>
        <mxCell id="gkY0Bc8icigIVwQfCu7p-146" value="session auth" style="strokeWidth=2;html=1;shape=mxgraph.flowchart.stored_data;whiteSpace=wrap;" parent="1" vertex="1">
          <mxGeometry x="364" y="848" width="100" height="60" as="geometry" />
        </mxCell>
        <mxCell id="gkY0Bc8icigIVwQfCu7p-152" value="" style="edgeStyle=orthogonalEdgeStyle;rounded=0;orthogonalLoop=1;jettySize=auto;html=1;" parent="1" source="gkY0Bc8icigIVwQfCu7p-149" target="gkY0Bc8icigIVwQfCu7p-151" edge="1">
          <mxGeometry relative="1" as="geometry" />
        </mxCell>
        <mxCell id="gkY0Bc8icigIVwQfCu7p-149" value="redirect dashboard" style="shape=process;whiteSpace=wrap;html=1;backgroundOutline=1;strokeWidth=2;" parent="1" vertex="1">
          <mxGeometry x="353" y="960" width="120" height="60" as="geometry" />
        </mxCell>
        <mxCell id="gkY0Bc8icigIVwQfCu7p-151" value="SELESAI" style="strokeWidth=2;html=1;shape=mxgraph.flowchart.start_1;whiteSpace=wrap;" parent="1" vertex="1">
          <mxGeometry x="363" y="1050" width="100" height="60" as="geometry" />
        </mxCell>
      </root>
    </mxGraphModel>
  </diagram>
  <diagram id="13RCBvN8jU5imontL4tD" name="register">
    <mxGraphModel dx="880" dy="572" grid="1" gridSize="10" guides="1" tooltips="1" connect="1" arrows="1" fold="1" page="1" pageScale="1" pageWidth="827" pageHeight="1169" background="#ffffff" math="0" shadow="0">
      <root>
        <mxCell id="0" />
        <mxCell id="1" parent="0" />
        <mxCell id="SgEQEZhU4JVzdxtp4dsf-1" value="Register Flowchart" style="shape=umlFrame;whiteSpace=wrap;html=1;pointerEvents=0;width=240;height=70;" parent="1" vertex="1">
          <mxGeometry x="40" y="40" width="760" height="760" as="geometry" />
        </mxCell>
        <mxCell id="SgEQEZhU4JVzdxtp4dsf-2" value="" style="edgeStyle=orthogonalEdgeStyle;rounded=0;orthogonalLoop=1;jettySize=auto;html=1;" parent="1" source="SgEQEZhU4JVzdxtp4dsf-3" target="SgEQEZhU4JVzdxtp4dsf-5" edge="1">
          <mxGeometry relative="1" as="geometry" />
        </mxCell>
        <mxCell id="SgEQEZhU4JVzdxtp4dsf-3" value="MULAI" style="strokeWidth=2;html=1;shape=mxgraph.flowchart.start_1;whiteSpace=wrap;" parent="1" vertex="1">
          <mxGeometry x="364" y="114" width="100" height="60" as="geometry" />
        </mxCell>
        <mxCell id="SgEQEZhU4JVzdxtp4dsf-4" value="" style="edgeStyle=orthogonalEdgeStyle;rounded=0;orthogonalLoop=1;jettySize=auto;html=1;" parent="1" source="SgEQEZhU4JVzdxtp4dsf-5" target="SgEQEZhU4JVzdxtp4dsf-7" edge="1">
          <mxGeometry relative="1" as="geometry" />
        </mxCell>
        <mxCell id="SgEQEZhU4JVzdxtp4dsf-5" value="Input&lt;div&gt;Name ,Email , Password&lt;/div&gt;" style="shape=parallelogram;perimeter=parallelogramPerimeter;whiteSpace=wrap;html=1;fixedSize=1;strokeWidth=2;" parent="1" vertex="1">
          <mxGeometry x="336" y="234" width="156" height="60" as="geometry" />
        </mxCell>
        <mxCell id="SgEQEZhU4JVzdxtp4dsf-6" value="" style="edgeStyle=orthogonalEdgeStyle;rounded=0;orthogonalLoop=1;jettySize=auto;html=1;" parent="1" source="SgEQEZhU4JVzdxtp4dsf-7" target="SgEQEZhU4JVzdxtp4dsf-12" edge="1">
          <mxGeometry relative="1" as="geometry" />
        </mxCell>
        <mxCell id="SgEQEZhU4JVzdxtp4dsf-7" value="simpan data&amp;nbsp;" style="shape=process;whiteSpace=wrap;html=1;backgroundOutline=1;strokeWidth=2;" parent="1" vertex="1">
          <mxGeometry x="354" y="360" width="120" height="60" as="geometry" />
        </mxCell>
        <mxCell id="SgEQEZhU4JVzdxtp4dsf-8" value="&lt;div&gt;&lt;br&gt;&lt;/div&gt;tabel&lt;div&gt;user&lt;/div&gt;" style="strokeWidth=2;html=1;shape=mxgraph.flowchart.database;whiteSpace=wrap;" parent="1" vertex="1">
          <mxGeometry x="190" y="360" width="60" height="60" as="geometry" />
        </mxCell>
        <mxCell id="SgEQEZhU4JVzdxtp4dsf-9" style="edgeStyle=orthogonalEdgeStyle;rounded=0;orthogonalLoop=1;jettySize=auto;html=1;exitX=0;exitY=0.5;exitDx=0;exitDy=0;entryX=1;entryY=0.5;entryDx=0;entryDy=0;entryPerimeter=0;" parent="1" source="SgEQEZhU4JVzdxtp4dsf-7" target="SgEQEZhU4JVzdxtp4dsf-8" edge="1">
          <mxGeometry relative="1" as="geometry" />
        </mxCell>
        <mxCell id="d-xShPehd0ByG8JXexqW-2" style="edgeStyle=orthogonalEdgeStyle;rounded=0;orthogonalLoop=1;jettySize=auto;html=1;exitX=0.5;exitY=1;exitDx=0;exitDy=0;entryX=0.5;entryY=0;entryDx=0;entryDy=0;" parent="1" source="SgEQEZhU4JVzdxtp4dsf-12" target="SgEQEZhU4JVzdxtp4dsf-27" edge="1">
          <mxGeometry relative="1" as="geometry" />
        </mxCell>
        <mxCell id="SgEQEZhU4JVzdxtp4dsf-12" value="data tersimpan" style="rhombus;whiteSpace=wrap;html=1;strokeWidth=2;" parent="1" vertex="1">
          <mxGeometry x="374" y="481" width="80" height="80" as="geometry" />
        </mxCell>
        <mxCell id="SgEQEZhU4JVzdxtp4dsf-18" style="edgeStyle=orthogonalEdgeStyle;rounded=0;orthogonalLoop=1;jettySize=auto;html=1;exitX=0.5;exitY=0;exitDx=0;exitDy=0;exitPerimeter=0;entryX=1;entryY=0.25;entryDx=0;entryDy=0;" parent="1" source="SgEQEZhU4JVzdxtp4dsf-19" target="SgEQEZhU4JVzdxtp4dsf-5" edge="1">
          <mxGeometry relative="1" as="geometry">
            <Array as="points">
              <mxPoint x="620" y="250" />
            </Array>
          </mxGeometry>
        </mxCell>
        <mxCell id="SgEQEZhU4JVzdxtp4dsf-19" value="pesan error" style="strokeWidth=2;html=1;shape=mxgraph.flowchart.display;whiteSpace=wrap;" parent="1" vertex="1">
          <mxGeometry x="570" y="491" width="100" height="60" as="geometry" />
        </mxCell>
        <mxCell id="SgEQEZhU4JVzdxtp4dsf-20" style="edgeStyle=orthogonalEdgeStyle;rounded=0;orthogonalLoop=1;jettySize=auto;html=1;entryX=0;entryY=0.5;entryDx=0;entryDy=0;entryPerimeter=0;" parent="1" source="SgEQEZhU4JVzdxtp4dsf-12" target="SgEQEZhU4JVzdxtp4dsf-19" edge="1">
          <mxGeometry relative="1" as="geometry" />
        </mxCell>
        <mxCell id="SgEQEZhU4JVzdxtp4dsf-21" value="tidak" style="edgeLabel;html=1;align=center;verticalAlign=middle;resizable=0;points=[];" parent="SgEQEZhU4JVzdxtp4dsf-20" vertex="1" connectable="0">
          <mxGeometry x="-0.2284" y="-1" relative="1" as="geometry">
            <mxPoint as="offset" />
          </mxGeometry>
        </mxCell>
        <mxCell id="SgEQEZhU4JVzdxtp4dsf-26" value="" style="edgeStyle=orthogonalEdgeStyle;rounded=0;orthogonalLoop=1;jettySize=auto;html=1;" parent="1" source="SgEQEZhU4JVzdxtp4dsf-27" target="SgEQEZhU4JVzdxtp4dsf-28" edge="1">
          <mxGeometry relative="1" as="geometry" />
        </mxCell>
        <mxCell id="SgEQEZhU4JVzdxtp4dsf-27" value="redirect&amp;nbsp;&lt;div&gt;Login Page&lt;/div&gt;" style="shape=process;whiteSpace=wrap;html=1;backgroundOutline=1;strokeWidth=2;" parent="1" vertex="1">
          <mxGeometry x="354" y="620" width="120" height="60" as="geometry" />
        </mxCell>
        <mxCell id="SgEQEZhU4JVzdxtp4dsf-28" value="SELESAI" style="strokeWidth=2;html=1;shape=mxgraph.flowchart.start_1;whiteSpace=wrap;" parent="1" vertex="1">
          <mxGeometry x="364" y="710" width="100" height="60" as="geometry" />
        </mxCell>
      </root>
    </mxGraphModel>
  </diagram>
  <diagram id="ASdYGad8jf27sALTEkHe" name="todo">
    <mxGraphModel dx="1100" dy="715" grid="1" gridSize="10" guides="1" tooltips="1" connect="1" arrows="1" fold="1" page="1" pageScale="1" pageWidth="827" pageHeight="1169" background="#ffffff" math="0" shadow="0">
      <root>
        <mxCell id="0" />
        <mxCell id="1" parent="0" />
        <mxCell id="ULCK67-0smndETf9dJ8r-1" value="Todo FlowChart" style="shape=umlFrame;whiteSpace=wrap;html=1;pointerEvents=0;width=240;height=70;" vertex="1" parent="1">
          <mxGeometry x="20" y="10" width="780" height="1140" as="geometry" />
        </mxCell>
        <mxCell id="ULCK67-0smndETf9dJ8r-29" value="" style="edgeStyle=orthogonalEdgeStyle;rounded=0;orthogonalLoop=1;jettySize=auto;html=1;" edge="1" parent="1" source="ULCK67-0smndETf9dJ8r-3" target="ULCK67-0smndETf9dJ8r-28">
          <mxGeometry relative="1" as="geometry" />
        </mxCell>
        <mxCell id="ULCK67-0smndETf9dJ8r-3" value="MULAI" style="strokeWidth=2;html=1;shape=mxgraph.flowchart.start_1;whiteSpace=wrap;" vertex="1" parent="1">
          <mxGeometry x="364" y="30" width="100" height="60" as="geometry" />
        </mxCell>
        <mxCell id="ULCK67-0smndETf9dJ8r-31" value="" style="edgeStyle=orthogonalEdgeStyle;rounded=0;orthogonalLoop=1;jettySize=auto;html=1;entryX=0.5;entryY=0;entryDx=0;entryDy=0;exitX=0.5;exitY=1;exitDx=0;exitDy=0;exitPerimeter=0;" edge="1" parent="1" source="ULCK67-0smndETf9dJ8r-28" target="ULCK67-0smndETf9dJ8r-36">
          <mxGeometry relative="1" as="geometry">
            <mxPoint x="160" y="240.00000000000023" as="targetPoint" />
          </mxGeometry>
        </mxCell>
        <mxCell id="ULCK67-0smndETf9dJ8r-33" value="" style="edgeStyle=orthogonalEdgeStyle;rounded=0;orthogonalLoop=1;jettySize=auto;html=1;entryX=0.5;entryY=0;entryDx=0;entryDy=0;" edge="1" parent="1" source="ULCK67-0smndETf9dJ8r-28" target="ULCK67-0smndETf9dJ8r-37">
          <mxGeometry relative="1" as="geometry">
            <mxPoint x="414" y="240" as="targetPoint" />
          </mxGeometry>
        </mxCell>
        <mxCell id="ULCK67-0smndETf9dJ8r-35" value="" style="edgeStyle=orthogonalEdgeStyle;rounded=0;orthogonalLoop=1;jettySize=auto;html=1;entryX=0.5;entryY=0;entryDx=0;entryDy=0;exitX=0.5;exitY=1;exitDx=0;exitDy=0;exitPerimeter=0;" edge="1" parent="1" source="ULCK67-0smndETf9dJ8r-28" target="ULCK67-0smndETf9dJ8r-38">
          <mxGeometry relative="1" as="geometry">
            <mxPoint x="680.0000000000002" y="240.00000000000023" as="targetPoint" />
          </mxGeometry>
        </mxCell>
        <mxCell id="ULCK67-0smndETf9dJ8r-28" value="Tampilkan List&lt;div&gt;TODO&lt;/div&gt;" style="strokeWidth=2;html=1;shape=mxgraph.flowchart.display;whiteSpace=wrap;" vertex="1" parent="1">
          <mxGeometry x="364" y="140" width="100" height="60" as="geometry" />
        </mxCell>
        <mxCell id="ULCK67-0smndETf9dJ8r-46" value="" style="edgeStyle=orthogonalEdgeStyle;rounded=0;orthogonalLoop=1;jettySize=auto;html=1;" edge="1" parent="1" source="ULCK67-0smndETf9dJ8r-36" target="ULCK67-0smndETf9dJ8r-45">
          <mxGeometry relative="1" as="geometry" />
        </mxCell>
        <mxCell id="ULCK67-0smndETf9dJ8r-36" value="Edit Todo" style="rounded=1;whiteSpace=wrap;html=1;absoluteArcSize=1;arcSize=14;strokeWidth=2;" vertex="1" parent="1">
          <mxGeometry x="110" y="260" width="100" height="40" as="geometry" />
        </mxCell>
        <mxCell id="ULCK67-0smndETf9dJ8r-44" value="" style="edgeStyle=orthogonalEdgeStyle;rounded=0;orthogonalLoop=1;jettySize=auto;html=1;" edge="1" parent="1" source="ULCK67-0smndETf9dJ8r-37" target="ULCK67-0smndETf9dJ8r-43">
          <mxGeometry relative="1" as="geometry" />
        </mxCell>
        <mxCell id="ULCK67-0smndETf9dJ8r-37" value="Tambah Todo" style="rounded=1;whiteSpace=wrap;html=1;absoluteArcSize=1;arcSize=14;strokeWidth=2;" vertex="1" parent="1">
          <mxGeometry x="364" y="260" width="100" height="40" as="geometry" />
        </mxCell>
        <mxCell id="ULCK67-0smndETf9dJ8r-40" value="" style="edgeStyle=orthogonalEdgeStyle;rounded=0;orthogonalLoop=1;jettySize=auto;html=1;" edge="1" parent="1" source="ULCK67-0smndETf9dJ8r-38" target="ULCK67-0smndETf9dJ8r-39">
          <mxGeometry relative="1" as="geometry" />
        </mxCell>
        <mxCell id="ULCK67-0smndETf9dJ8r-38" value="hapus Todo" style="rounded=1;whiteSpace=wrap;html=1;absoluteArcSize=1;arcSize=14;strokeWidth=2;" vertex="1" parent="1">
          <mxGeometry x="600" y="260" width="100" height="40" as="geometry" />
        </mxCell>
        <mxCell id="ULCK67-0smndETf9dJ8r-67" value="" style="edgeStyle=orthogonalEdgeStyle;rounded=0;orthogonalLoop=1;jettySize=auto;html=1;" edge="1" parent="1" source="ULCK67-0smndETf9dJ8r-39" target="ULCK67-0smndETf9dJ8r-66">
          <mxGeometry relative="1" as="geometry" />
        </mxCell>
        <mxCell id="ULCK67-0smndETf9dJ8r-39" value="confirmasi&lt;div&gt;hapus&lt;/div&gt;" style="rhombus;whiteSpace=wrap;html=1;rounded=1;arcSize=14;strokeWidth=2;" vertex="1" parent="1">
          <mxGeometry x="610" y="360" width="80" height="80" as="geometry" />
        </mxCell>
        <mxCell id="ULCK67-0smndETf9dJ8r-42" style="edgeStyle=orthogonalEdgeStyle;rounded=0;orthogonalLoop=1;jettySize=auto;html=1;exitX=1;exitY=0.5;exitDx=0;exitDy=0;entryX=1;entryY=0.5;entryDx=0;entryDy=0;entryPerimeter=0;" edge="1" parent="1" source="ULCK67-0smndETf9dJ8r-39" target="ULCK67-0smndETf9dJ8r-28">
          <mxGeometry relative="1" as="geometry">
            <Array as="points">
              <mxPoint x="760" y="400" />
              <mxPoint x="760" y="170" />
            </Array>
          </mxGeometry>
        </mxCell>
        <mxCell id="ULCK67-0smndETf9dJ8r-64" value="tidak" style="edgeLabel;html=1;align=center;verticalAlign=middle;resizable=0;points=[];" vertex="1" connectable="0" parent="ULCK67-0smndETf9dJ8r-42">
          <mxGeometry x="-0.8826" y="4" relative="1" as="geometry">
            <mxPoint as="offset" />
          </mxGeometry>
        </mxCell>
        <mxCell id="ULCK67-0smndETf9dJ8r-51" style="edgeStyle=orthogonalEdgeStyle;rounded=0;orthogonalLoop=1;jettySize=auto;html=1;entryX=0.5;entryY=0;entryDx=0;entryDy=0;entryPerimeter=0;" edge="1" parent="1" source="ULCK67-0smndETf9dJ8r-43" target="ULCK67-0smndETf9dJ8r-53">
          <mxGeometry relative="1" as="geometry">
            <mxPoint x="280" y="550" as="targetPoint" />
          </mxGeometry>
        </mxCell>
        <mxCell id="ULCK67-0smndETf9dJ8r-43" value="input&lt;div&gt;&lt;b&gt;todo name,&lt;/b&gt;&lt;/div&gt;&lt;div&gt;&lt;b&gt;description,&lt;/b&gt;&lt;/div&gt;&lt;div&gt;&lt;b&gt;due_date ,&lt;/b&gt;&lt;/div&gt;&lt;div&gt;&lt;b&gt;priority,&lt;/b&gt;&lt;/div&gt;&lt;div&gt;&lt;b&gt;status&lt;/b&gt;&lt;/div&gt;" style="shape=parallelogram;perimeter=parallelogramPerimeter;whiteSpace=wrap;html=1;fixedSize=1;rounded=1;arcSize=14;strokeWidth=2;" vertex="1" parent="1">
          <mxGeometry x="314" y="360" width="200" height="100" as="geometry" />
        </mxCell>
        <mxCell id="ULCK67-0smndETf9dJ8r-50" value="" style="edgeStyle=orthogonalEdgeStyle;rounded=0;orthogonalLoop=1;jettySize=auto;html=1;entryX=0.5;entryY=0;entryDx=0;entryDy=0;entryPerimeter=0;" edge="1" parent="1" source="ULCK67-0smndETf9dJ8r-45" target="ULCK67-0smndETf9dJ8r-53">
          <mxGeometry relative="1" as="geometry">
            <mxPoint x="280" y="550" as="targetPoint" />
          </mxGeometry>
        </mxCell>
        <mxCell id="ULCK67-0smndETf9dJ8r-45" value="input new&lt;div&gt;&lt;b&gt;todo name,&lt;/b&gt;&lt;/div&gt;&lt;div&gt;&lt;b&gt;description,&lt;/b&gt;&lt;/div&gt;&lt;div&gt;&lt;b&gt;due_date ,&lt;/b&gt;&lt;/div&gt;&lt;div&gt;&lt;b&gt;priority,&lt;/b&gt;&lt;/div&gt;&lt;div&gt;&lt;b&gt;status&lt;/b&gt;&lt;/div&gt;" style="shape=parallelogram;perimeter=parallelogramPerimeter;whiteSpace=wrap;html=1;fixedSize=1;rounded=1;arcSize=14;strokeWidth=2;" vertex="1" parent="1">
          <mxGeometry x="60" y="360" width="200" height="100" as="geometry" />
        </mxCell>
        <mxCell id="ULCK67-0smndETf9dJ8r-56" value="" style="edgeStyle=orthogonalEdgeStyle;rounded=0;orthogonalLoop=1;jettySize=auto;html=1;" edge="1" parent="1" source="ULCK67-0smndETf9dJ8r-53" target="ULCK67-0smndETf9dJ8r-55">
          <mxGeometry relative="1" as="geometry" />
        </mxCell>
        <mxCell id="ULCK67-0smndETf9dJ8r-57" value="tidak valid" style="edgeLabel;html=1;align=center;verticalAlign=middle;resizable=0;points=[];" vertex="1" connectable="0" parent="ULCK67-0smndETf9dJ8r-56">
          <mxGeometry x="-0.0833" y="-1" relative="1" as="geometry">
            <mxPoint as="offset" />
          </mxGeometry>
        </mxCell>
        <mxCell id="ULCK67-0smndETf9dJ8r-59" value="" style="edgeStyle=orthogonalEdgeStyle;rounded=0;orthogonalLoop=1;jettySize=auto;html=1;" edge="1" parent="1" source="ULCK67-0smndETf9dJ8r-53" target="ULCK67-0smndETf9dJ8r-58">
          <mxGeometry relative="1" as="geometry" />
        </mxCell>
        <mxCell id="ULCK67-0smndETf9dJ8r-80" value="Valid" style="edgeLabel;html=1;align=center;verticalAlign=middle;resizable=0;points=[];" vertex="1" connectable="0" parent="ULCK67-0smndETf9dJ8r-59">
          <mxGeometry x="-0.075" y="3" relative="1" as="geometry">
            <mxPoint y="1" as="offset" />
          </mxGeometry>
        </mxCell>
        <mxCell id="ULCK67-0smndETf9dJ8r-53" value="validasi input" style="strokeWidth=2;html=1;shape=mxgraph.flowchart.decision;whiteSpace=wrap;" vertex="1" parent="1">
          <mxGeometry x="230" y="535" width="100" height="100" as="geometry" />
        </mxCell>
        <mxCell id="ULCK67-0smndETf9dJ8r-55" value="pesan error" style="strokeWidth=2;html=1;shape=mxgraph.flowchart.display;whiteSpace=wrap;" vertex="1" parent="1">
          <mxGeometry x="60" y="554" width="100" height="60" as="geometry" />
        </mxCell>
        <mxCell id="ULCK67-0smndETf9dJ8r-58" value="update&amp;nbsp;&lt;div&gt;database&lt;/div&gt;" style="shape=process;whiteSpace=wrap;html=1;backgroundOutline=1;strokeWidth=2;" vertex="1" parent="1">
          <mxGeometry x="430" y="555" width="120" height="60" as="geometry" />
        </mxCell>
        <mxCell id="ULCK67-0smndETf9dJ8r-70" value="" style="edgeStyle=orthogonalEdgeStyle;rounded=0;orthogonalLoop=1;jettySize=auto;html=1;" edge="1" parent="1" source="ULCK67-0smndETf9dJ8r-60" target="ULCK67-0smndETf9dJ8r-69">
          <mxGeometry relative="1" as="geometry" />
        </mxCell>
        <mxCell id="ULCK67-0smndETf9dJ8r-60" value="&lt;div&gt;&lt;br&gt;&lt;/div&gt;database" style="strokeWidth=2;html=1;shape=mxgraph.flowchart.database;whiteSpace=wrap;" vertex="1" parent="1">
          <mxGeometry x="430" y="680" width="120" height="80" as="geometry" />
        </mxCell>
        <mxCell id="ULCK67-0smndETf9dJ8r-62" style="edgeStyle=orthogonalEdgeStyle;rounded=0;orthogonalLoop=1;jettySize=auto;html=1;exitX=0.5;exitY=1;exitDx=0;exitDy=0;entryX=0.5;entryY=0;entryDx=0;entryDy=0;entryPerimeter=0;" edge="1" parent="1" source="ULCK67-0smndETf9dJ8r-58" target="ULCK67-0smndETf9dJ8r-60">
          <mxGeometry relative="1" as="geometry" />
        </mxCell>
        <mxCell id="ULCK67-0smndETf9dJ8r-68" style="edgeStyle=orthogonalEdgeStyle;rounded=0;orthogonalLoop=1;jettySize=auto;html=1;exitX=0.5;exitY=1;exitDx=0;exitDy=0;entryX=1;entryY=0.5;entryDx=0;entryDy=0;" edge="1" parent="1" source="ULCK67-0smndETf9dJ8r-66" target="ULCK67-0smndETf9dJ8r-58">
          <mxGeometry relative="1" as="geometry" />
        </mxCell>
        <mxCell id="ULCK67-0smndETf9dJ8r-66" value="delete todo" style="shape=process;whiteSpace=wrap;html=1;backgroundOutline=1;rounded=1;arcSize=14;strokeWidth=2;" vertex="1" parent="1">
          <mxGeometry x="590" y="480" width="120" height="60" as="geometry" />
        </mxCell>
        <mxCell id="ULCK67-0smndETf9dJ8r-79" style="edgeStyle=orthogonalEdgeStyle;rounded=0;orthogonalLoop=1;jettySize=auto;html=1;" edge="1" parent="1" source="ULCK67-0smndETf9dJ8r-69" target="ULCK67-0smndETf9dJ8r-78">
          <mxGeometry relative="1" as="geometry" />
        </mxCell>
        <mxCell id="ULCK67-0smndETf9dJ8r-81" value="SUCCESS" style="edgeLabel;html=1;align=center;verticalAlign=middle;resizable=0;points=[];" vertex="1" connectable="0" parent="ULCK67-0smndETf9dJ8r-79">
          <mxGeometry x="-0.1364" relative="1" as="geometry">
            <mxPoint as="offset" />
          </mxGeometry>
        </mxCell>
        <mxCell id="ULCK67-0smndETf9dJ8r-69" value="update&amp;nbsp;&lt;div&gt;database&amp;nbsp;&lt;/div&gt;&lt;div&gt;sukses&lt;/div&gt;" style="rhombus;whiteSpace=wrap;html=1;strokeWidth=2;" vertex="1" parent="1">
          <mxGeometry x="420" y="840" width="140" height="80" as="geometry" />
        </mxCell>
        <mxCell id="ULCK67-0smndETf9dJ8r-73" style="edgeStyle=orthogonalEdgeStyle;rounded=0;orthogonalLoop=1;jettySize=auto;html=1;entryX=0.5;entryY=1;entryDx=0;entryDy=0;entryPerimeter=0;" edge="1" parent="1" source="ULCK67-0smndETf9dJ8r-69" target="ULCK67-0smndETf9dJ8r-55">
          <mxGeometry relative="1" as="geometry" />
        </mxCell>
        <mxCell id="ULCK67-0smndETf9dJ8r-75" value="FAILED" style="edgeLabel;html=1;align=center;verticalAlign=middle;resizable=0;points=[];" vertex="1" connectable="0" parent="ULCK67-0smndETf9dJ8r-73">
          <mxGeometry x="-0.6701" y="-1" relative="1" as="geometry">
            <mxPoint as="offset" />
          </mxGeometry>
        </mxCell>
        <mxCell id="ULCK67-0smndETf9dJ8r-74" style="edgeStyle=orthogonalEdgeStyle;rounded=0;orthogonalLoop=1;jettySize=auto;html=1;exitX=0;exitY=0.5;exitDx=0;exitDy=0;exitPerimeter=0;entryX=0;entryY=0.5;entryDx=0;entryDy=0;entryPerimeter=0;" edge="1" parent="1" source="ULCK67-0smndETf9dJ8r-55" target="ULCK67-0smndETf9dJ8r-28">
          <mxGeometry relative="1" as="geometry" />
        </mxCell>
        <mxCell id="ULCK67-0smndETf9dJ8r-78" value="SELESAI" style="strokeWidth=2;html=1;shape=mxgraph.flowchart.start_1;whiteSpace=wrap;" vertex="1" parent="1">
          <mxGeometry x="440" y="1060" width="100" height="60" as="geometry" />
        </mxCell>
      </root>
    </mxGraphModel>
  </diagram>
  <diagram id="ooqpwzupkm-dCrVx_ONC" name="erd">
    <mxGraphModel dx="1257" dy="817" grid="1" gridSize="10" guides="1" tooltips="1" connect="1" arrows="1" fold="1" page="1" pageScale="1" pageWidth="827" pageHeight="1169" background="#ffffff" math="0" shadow="0">
      <root>
        <mxCell id="0" />
        <mxCell id="1" parent="0" />
        <mxCell id="nt-XfeTgK_7K62Uy94VP-7" value="Users" style="shape=table;startSize=30;container=1;collapsible=1;childLayout=tableLayout;fixedRows=1;rowLines=0;fontStyle=1;align=center;resizeLast=1;html=1;" vertex="1" parent="1">
          <mxGeometry x="315" y="160" width="180" height="270" as="geometry" />
        </mxCell>
        <mxCell id="nt-XfeTgK_7K62Uy94VP-8" value="" style="shape=tableRow;horizontal=0;startSize=0;swimlaneHead=0;swimlaneBody=0;fillColor=none;collapsible=0;dropTarget=0;points=[[0,0.5],[1,0.5]];portConstraint=eastwest;top=0;left=0;right=0;bottom=1;" vertex="1" parent="nt-XfeTgK_7K62Uy94VP-7">
          <mxGeometry y="30" width="180" height="30" as="geometry" />
        </mxCell>
        <mxCell id="nt-XfeTgK_7K62Uy94VP-9" value="PK" style="shape=partialRectangle;connectable=0;fillColor=none;top=0;left=0;bottom=0;right=0;fontStyle=1;overflow=hidden;whiteSpace=wrap;html=1;" vertex="1" parent="nt-XfeTgK_7K62Uy94VP-8">
          <mxGeometry width="30" height="30" as="geometry">
            <mxRectangle width="30" height="30" as="alternateBounds" />
          </mxGeometry>
        </mxCell>
        <mxCell id="nt-XfeTgK_7K62Uy94VP-10" value="id" style="shape=partialRectangle;connectable=0;fillColor=none;top=0;left=0;bottom=0;right=0;align=left;spacingLeft=6;fontStyle=5;overflow=hidden;whiteSpace=wrap;html=1;" vertex="1" parent="nt-XfeTgK_7K62Uy94VP-8">
          <mxGeometry x="30" width="150" height="30" as="geometry">
            <mxRectangle width="150" height="30" as="alternateBounds" />
          </mxGeometry>
        </mxCell>
        <mxCell id="nt-XfeTgK_7K62Uy94VP-11" value="" style="shape=tableRow;horizontal=0;startSize=0;swimlaneHead=0;swimlaneBody=0;fillColor=none;collapsible=0;dropTarget=0;points=[[0,0.5],[1,0.5]];portConstraint=eastwest;top=0;left=0;right=0;bottom=0;" vertex="1" parent="nt-XfeTgK_7K62Uy94VP-7">
          <mxGeometry y="60" width="180" height="30" as="geometry" />
        </mxCell>
        <mxCell id="nt-XfeTgK_7K62Uy94VP-12" value="" style="shape=partialRectangle;connectable=0;fillColor=none;top=0;left=0;bottom=0;right=0;editable=1;overflow=hidden;whiteSpace=wrap;html=1;" vertex="1" parent="nt-XfeTgK_7K62Uy94VP-11">
          <mxGeometry width="30" height="30" as="geometry">
            <mxRectangle width="30" height="30" as="alternateBounds" />
          </mxGeometry>
        </mxCell>
        <mxCell id="nt-XfeTgK_7K62Uy94VP-13" value="email" style="shape=partialRectangle;connectable=0;fillColor=none;top=0;left=0;bottom=0;right=0;align=left;spacingLeft=6;overflow=hidden;whiteSpace=wrap;html=1;" vertex="1" parent="nt-XfeTgK_7K62Uy94VP-11">
          <mxGeometry x="30" width="150" height="30" as="geometry">
            <mxRectangle width="150" height="30" as="alternateBounds" />
          </mxGeometry>
        </mxCell>
        <mxCell id="nt-XfeTgK_7K62Uy94VP-14" value="" style="shape=tableRow;horizontal=0;startSize=0;swimlaneHead=0;swimlaneBody=0;fillColor=none;collapsible=0;dropTarget=0;points=[[0,0.5],[1,0.5]];portConstraint=eastwest;top=0;left=0;right=0;bottom=0;" vertex="1" parent="nt-XfeTgK_7K62Uy94VP-7">
          <mxGeometry y="90" width="180" height="30" as="geometry" />
        </mxCell>
        <mxCell id="nt-XfeTgK_7K62Uy94VP-15" value="" style="shape=partialRectangle;connectable=0;fillColor=none;top=0;left=0;bottom=0;right=0;editable=1;overflow=hidden;whiteSpace=wrap;html=1;" vertex="1" parent="nt-XfeTgK_7K62Uy94VP-14">
          <mxGeometry width="30" height="30" as="geometry">
            <mxRectangle width="30" height="30" as="alternateBounds" />
          </mxGeometry>
        </mxCell>
        <mxCell id="nt-XfeTgK_7K62Uy94VP-16" value="password" style="shape=partialRectangle;connectable=0;fillColor=none;top=0;left=0;bottom=0;right=0;align=left;spacingLeft=6;overflow=hidden;whiteSpace=wrap;html=1;" vertex="1" parent="nt-XfeTgK_7K62Uy94VP-14">
          <mxGeometry x="30" width="150" height="30" as="geometry">
            <mxRectangle width="150" height="30" as="alternateBounds" />
          </mxGeometry>
        </mxCell>
        <mxCell id="nt-XfeTgK_7K62Uy94VP-17" value="" style="shape=tableRow;horizontal=0;startSize=0;swimlaneHead=0;swimlaneBody=0;fillColor=none;collapsible=0;dropTarget=0;points=[[0,0.5],[1,0.5]];portConstraint=eastwest;top=0;left=0;right=0;bottom=0;" vertex="1" parent="nt-XfeTgK_7K62Uy94VP-7">
          <mxGeometry y="120" width="180" height="30" as="geometry" />
        </mxCell>
        <mxCell id="nt-XfeTgK_7K62Uy94VP-18" value="" style="shape=partialRectangle;connectable=0;fillColor=none;top=0;left=0;bottom=0;right=0;editable=1;overflow=hidden;whiteSpace=wrap;html=1;" vertex="1" parent="nt-XfeTgK_7K62Uy94VP-17">
          <mxGeometry width="30" height="30" as="geometry">
            <mxRectangle width="30" height="30" as="alternateBounds" />
          </mxGeometry>
        </mxCell>
        <mxCell id="nt-XfeTgK_7K62Uy94VP-19" value="name" style="shape=partialRectangle;connectable=0;fillColor=none;top=0;left=0;bottom=0;right=0;align=left;spacingLeft=6;overflow=hidden;whiteSpace=wrap;html=1;" vertex="1" parent="nt-XfeTgK_7K62Uy94VP-17">
          <mxGeometry x="30" width="150" height="30" as="geometry">
            <mxRectangle width="150" height="30" as="alternateBounds" />
          </mxGeometry>
        </mxCell>
        <mxCell id="nt-XfeTgK_7K62Uy94VP-27" value="" style="shape=tableRow;horizontal=0;startSize=0;swimlaneHead=0;swimlaneBody=0;fillColor=none;collapsible=0;dropTarget=0;points=[[0,0.5],[1,0.5]];portConstraint=eastwest;top=0;left=0;right=0;bottom=0;" vertex="1" parent="nt-XfeTgK_7K62Uy94VP-7">
          <mxGeometry y="150" width="180" height="30" as="geometry" />
        </mxCell>
        <mxCell id="nt-XfeTgK_7K62Uy94VP-28" value="" style="shape=partialRectangle;connectable=0;fillColor=none;top=0;left=0;bottom=0;right=0;editable=1;overflow=hidden;whiteSpace=wrap;html=1;" vertex="1" parent="nt-XfeTgK_7K62Uy94VP-27">
          <mxGeometry width="30" height="30" as="geometry">
            <mxRectangle width="30" height="30" as="alternateBounds" />
          </mxGeometry>
        </mxCell>
        <mxCell id="nt-XfeTgK_7K62Uy94VP-29" value="role" style="shape=partialRectangle;connectable=0;fillColor=none;top=0;left=0;bottom=0;right=0;align=left;spacingLeft=6;overflow=hidden;whiteSpace=wrap;html=1;" vertex="1" parent="nt-XfeTgK_7K62Uy94VP-27">
          <mxGeometry x="30" width="150" height="30" as="geometry">
            <mxRectangle width="150" height="30" as="alternateBounds" />
          </mxGeometry>
        </mxCell>
        <mxCell id="nt-XfeTgK_7K62Uy94VP-33" value="" style="shape=tableRow;horizontal=0;startSize=0;swimlaneHead=0;swimlaneBody=0;fillColor=none;collapsible=0;dropTarget=0;points=[[0,0.5],[1,0.5]];portConstraint=eastwest;top=0;left=0;right=0;bottom=0;" vertex="1" parent="nt-XfeTgK_7K62Uy94VP-7">
          <mxGeometry y="180" width="180" height="30" as="geometry" />
        </mxCell>
        <mxCell id="nt-XfeTgK_7K62Uy94VP-34" value="" style="shape=partialRectangle;connectable=0;fillColor=none;top=0;left=0;bottom=0;right=0;editable=1;overflow=hidden;whiteSpace=wrap;html=1;" vertex="1" parent="nt-XfeTgK_7K62Uy94VP-33">
          <mxGeometry width="30" height="30" as="geometry">
            <mxRectangle width="30" height="30" as="alternateBounds" />
          </mxGeometry>
        </mxCell>
        <mxCell id="nt-XfeTgK_7K62Uy94VP-35" value="created_at" style="shape=partialRectangle;connectable=0;fillColor=none;top=0;left=0;bottom=0;right=0;align=left;spacingLeft=6;overflow=hidden;whiteSpace=wrap;html=1;" vertex="1" parent="nt-XfeTgK_7K62Uy94VP-33">
          <mxGeometry x="30" width="150" height="30" as="geometry">
            <mxRectangle width="150" height="30" as="alternateBounds" />
          </mxGeometry>
        </mxCell>
        <mxCell id="nt-XfeTgK_7K62Uy94VP-36" value="" style="shape=tableRow;horizontal=0;startSize=0;swimlaneHead=0;swimlaneBody=0;fillColor=none;collapsible=0;dropTarget=0;points=[[0,0.5],[1,0.5]];portConstraint=eastwest;top=0;left=0;right=0;bottom=0;" vertex="1" parent="nt-XfeTgK_7K62Uy94VP-7">
          <mxGeometry y="210" width="180" height="30" as="geometry" />
        </mxCell>
        <mxCell id="nt-XfeTgK_7K62Uy94VP-37" value="" style="shape=partialRectangle;connectable=0;fillColor=none;top=0;left=0;bottom=0;right=0;editable=1;overflow=hidden;whiteSpace=wrap;html=1;" vertex="1" parent="nt-XfeTgK_7K62Uy94VP-36">
          <mxGeometry width="30" height="30" as="geometry">
            <mxRectangle width="30" height="30" as="alternateBounds" />
          </mxGeometry>
        </mxCell>
        <mxCell id="nt-XfeTgK_7K62Uy94VP-38" value="updated_at" style="shape=partialRectangle;connectable=0;fillColor=none;top=0;left=0;bottom=0;right=0;align=left;spacingLeft=6;overflow=hidden;whiteSpace=wrap;html=1;" vertex="1" parent="nt-XfeTgK_7K62Uy94VP-36">
          <mxGeometry x="30" width="150" height="30" as="geometry">
            <mxRectangle width="150" height="30" as="alternateBounds" />
          </mxGeometry>
        </mxCell>
        <mxCell id="nt-XfeTgK_7K62Uy94VP-20" value="" style="shape=tableRow;horizontal=0;startSize=0;swimlaneHead=0;swimlaneBody=0;fillColor=none;collapsible=0;dropTarget=0;points=[[0,0.5],[1,0.5]];portConstraint=eastwest;top=0;left=0;right=0;bottom=1;" vertex="1" parent="nt-XfeTgK_7K62Uy94VP-7">
          <mxGeometry y="240" width="180" height="30" as="geometry" />
        </mxCell>
        <mxCell id="nt-XfeTgK_7K62Uy94VP-21" value="" style="shape=partialRectangle;connectable=0;fillColor=none;top=0;left=0;bottom=0;right=0;fontStyle=1;overflow=hidden;whiteSpace=wrap;html=1;" vertex="1" parent="nt-XfeTgK_7K62Uy94VP-20">
          <mxGeometry width="30" height="30" as="geometry">
            <mxRectangle width="30" height="30" as="alternateBounds" />
          </mxGeometry>
        </mxCell>
        <mxCell id="nt-XfeTgK_7K62Uy94VP-22" value="" style="shape=partialRectangle;connectable=0;fillColor=none;top=0;left=0;bottom=0;right=0;align=left;spacingLeft=6;fontStyle=5;overflow=hidden;whiteSpace=wrap;html=1;" vertex="1" parent="nt-XfeTgK_7K62Uy94VP-20">
          <mxGeometry x="30" width="150" height="30" as="geometry">
            <mxRectangle width="150" height="30" as="alternateBounds" />
          </mxGeometry>
        </mxCell>
        <mxCell id="nt-XfeTgK_7K62Uy94VP-39" value="Tasks" style="shape=table;startSize=30;container=1;collapsible=1;childLayout=tableLayout;fixedRows=1;rowLines=0;fontStyle=1;align=center;resizeLast=1;html=1;" vertex="1" parent="1">
          <mxGeometry x="60" y="160" width="180" height="330" as="geometry" />
        </mxCell>
        <mxCell id="nt-XfeTgK_7K62Uy94VP-40" value="" style="shape=tableRow;horizontal=0;startSize=0;swimlaneHead=0;swimlaneBody=0;fillColor=none;collapsible=0;dropTarget=0;points=[[0,0.5],[1,0.5]];portConstraint=eastwest;top=0;left=0;right=0;bottom=1;" vertex="1" parent="nt-XfeTgK_7K62Uy94VP-39">
          <mxGeometry y="30" width="180" height="30" as="geometry" />
        </mxCell>
        <mxCell id="nt-XfeTgK_7K62Uy94VP-41" value="PK" style="shape=partialRectangle;connectable=0;fillColor=none;top=0;left=0;bottom=0;right=0;fontStyle=1;overflow=hidden;whiteSpace=wrap;html=1;" vertex="1" parent="nt-XfeTgK_7K62Uy94VP-40">
          <mxGeometry width="30" height="30" as="geometry">
            <mxRectangle width="30" height="30" as="alternateBounds" />
          </mxGeometry>
        </mxCell>
        <mxCell id="nt-XfeTgK_7K62Uy94VP-42" value="id" style="shape=partialRectangle;connectable=0;fillColor=none;top=0;left=0;bottom=0;right=0;align=left;spacingLeft=6;fontStyle=5;overflow=hidden;whiteSpace=wrap;html=1;" vertex="1" parent="nt-XfeTgK_7K62Uy94VP-40">
          <mxGeometry x="30" width="150" height="30" as="geometry">
            <mxRectangle width="150" height="30" as="alternateBounds" />
          </mxGeometry>
        </mxCell>
        <mxCell id="nt-XfeTgK_7K62Uy94VP-43" value="" style="shape=tableRow;horizontal=0;startSize=0;swimlaneHead=0;swimlaneBody=0;fillColor=none;collapsible=0;dropTarget=0;points=[[0,0.5],[1,0.5]];portConstraint=eastwest;top=0;left=0;right=0;bottom=0;" vertex="1" parent="nt-XfeTgK_7K62Uy94VP-39">
          <mxGeometry y="60" width="180" height="30" as="geometry" />
        </mxCell>
        <mxCell id="nt-XfeTgK_7K62Uy94VP-44" value="" style="shape=partialRectangle;connectable=0;fillColor=none;top=0;left=0;bottom=0;right=0;editable=1;overflow=hidden;whiteSpace=wrap;html=1;" vertex="1" parent="nt-XfeTgK_7K62Uy94VP-43">
          <mxGeometry width="30" height="30" as="geometry">
            <mxRectangle width="30" height="30" as="alternateBounds" />
          </mxGeometry>
        </mxCell>
        <mxCell id="nt-XfeTgK_7K62Uy94VP-45" value="name" style="shape=partialRectangle;connectable=0;fillColor=none;top=0;left=0;bottom=0;right=0;align=left;spacingLeft=6;overflow=hidden;whiteSpace=wrap;html=1;" vertex="1" parent="nt-XfeTgK_7K62Uy94VP-43">
          <mxGeometry x="30" width="150" height="30" as="geometry">
            <mxRectangle width="150" height="30" as="alternateBounds" />
          </mxGeometry>
        </mxCell>
        <mxCell id="nt-XfeTgK_7K62Uy94VP-46" value="" style="shape=tableRow;horizontal=0;startSize=0;swimlaneHead=0;swimlaneBody=0;fillColor=none;collapsible=0;dropTarget=0;points=[[0,0.5],[1,0.5]];portConstraint=eastwest;top=0;left=0;right=0;bottom=0;" vertex="1" parent="nt-XfeTgK_7K62Uy94VP-39">
          <mxGeometry y="90" width="180" height="30" as="geometry" />
        </mxCell>
        <mxCell id="nt-XfeTgK_7K62Uy94VP-47" value="" style="shape=partialRectangle;connectable=0;fillColor=none;top=0;left=0;bottom=0;right=0;editable=1;overflow=hidden;whiteSpace=wrap;html=1;" vertex="1" parent="nt-XfeTgK_7K62Uy94VP-46">
          <mxGeometry width="30" height="30" as="geometry">
            <mxRectangle width="30" height="30" as="alternateBounds" />
          </mxGeometry>
        </mxCell>
        <mxCell id="nt-XfeTgK_7K62Uy94VP-48" value="description" style="shape=partialRectangle;connectable=0;fillColor=none;top=0;left=0;bottom=0;right=0;align=left;spacingLeft=6;overflow=hidden;whiteSpace=wrap;html=1;" vertex="1" parent="nt-XfeTgK_7K62Uy94VP-46">
          <mxGeometry x="30" width="150" height="30" as="geometry">
            <mxRectangle width="150" height="30" as="alternateBounds" />
          </mxGeometry>
        </mxCell>
        <mxCell id="nt-XfeTgK_7K62Uy94VP-49" value="" style="shape=tableRow;horizontal=0;startSize=0;swimlaneHead=0;swimlaneBody=0;fillColor=none;collapsible=0;dropTarget=0;points=[[0,0.5],[1,0.5]];portConstraint=eastwest;top=0;left=0;right=0;bottom=0;" vertex="1" parent="nt-XfeTgK_7K62Uy94VP-39">
          <mxGeometry y="120" width="180" height="30" as="geometry" />
        </mxCell>
        <mxCell id="nt-XfeTgK_7K62Uy94VP-50" value="" style="shape=partialRectangle;connectable=0;fillColor=none;top=0;left=0;bottom=0;right=0;editable=1;overflow=hidden;whiteSpace=wrap;html=1;" vertex="1" parent="nt-XfeTgK_7K62Uy94VP-49">
          <mxGeometry width="30" height="30" as="geometry">
            <mxRectangle width="30" height="30" as="alternateBounds" />
          </mxGeometry>
        </mxCell>
        <mxCell id="nt-XfeTgK_7K62Uy94VP-51" value="due_date" style="shape=partialRectangle;connectable=0;fillColor=none;top=0;left=0;bottom=0;right=0;align=left;spacingLeft=6;overflow=hidden;whiteSpace=wrap;html=1;" vertex="1" parent="nt-XfeTgK_7K62Uy94VP-49">
          <mxGeometry x="30" width="150" height="30" as="geometry">
            <mxRectangle width="150" height="30" as="alternateBounds" />
          </mxGeometry>
        </mxCell>
        <mxCell id="nt-XfeTgK_7K62Uy94VP-52" value="" style="shape=tableRow;horizontal=0;startSize=0;swimlaneHead=0;swimlaneBody=0;fillColor=none;collapsible=0;dropTarget=0;points=[[0,0.5],[1,0.5]];portConstraint=eastwest;top=0;left=0;right=0;bottom=0;" vertex="1" parent="nt-XfeTgK_7K62Uy94VP-39">
          <mxGeometry y="150" width="180" height="30" as="geometry" />
        </mxCell>
        <mxCell id="nt-XfeTgK_7K62Uy94VP-53" value="" style="shape=partialRectangle;connectable=0;fillColor=none;top=0;left=0;bottom=0;right=0;editable=1;overflow=hidden;whiteSpace=wrap;html=1;" vertex="1" parent="nt-XfeTgK_7K62Uy94VP-52">
          <mxGeometry width="30" height="30" as="geometry">
            <mxRectangle width="30" height="30" as="alternateBounds" />
          </mxGeometry>
        </mxCell>
        <mxCell id="nt-XfeTgK_7K62Uy94VP-54" value="priority" style="shape=partialRectangle;connectable=0;fillColor=none;top=0;left=0;bottom=0;right=0;align=left;spacingLeft=6;overflow=hidden;whiteSpace=wrap;html=1;" vertex="1" parent="nt-XfeTgK_7K62Uy94VP-52">
          <mxGeometry x="30" width="150" height="30" as="geometry">
            <mxRectangle width="150" height="30" as="alternateBounds" />
          </mxGeometry>
        </mxCell>
        <mxCell id="nt-XfeTgK_7K62Uy94VP-55" value="" style="shape=tableRow;horizontal=0;startSize=0;swimlaneHead=0;swimlaneBody=0;fillColor=none;collapsible=0;dropTarget=0;points=[[0,0.5],[1,0.5]];portConstraint=eastwest;top=0;left=0;right=0;bottom=0;" vertex="1" parent="nt-XfeTgK_7K62Uy94VP-39">
          <mxGeometry y="180" width="180" height="30" as="geometry" />
        </mxCell>
        <mxCell id="nt-XfeTgK_7K62Uy94VP-56" value="" style="shape=partialRectangle;connectable=0;fillColor=none;top=0;left=0;bottom=0;right=0;editable=1;overflow=hidden;whiteSpace=wrap;html=1;" vertex="1" parent="nt-XfeTgK_7K62Uy94VP-55">
          <mxGeometry width="30" height="30" as="geometry">
            <mxRectangle width="30" height="30" as="alternateBounds" />
          </mxGeometry>
        </mxCell>
        <mxCell id="nt-XfeTgK_7K62Uy94VP-57" value="status" style="shape=partialRectangle;connectable=0;fillColor=none;top=0;left=0;bottom=0;right=0;align=left;spacingLeft=6;overflow=hidden;whiteSpace=wrap;html=1;" vertex="1" parent="nt-XfeTgK_7K62Uy94VP-55">
          <mxGeometry x="30" width="150" height="30" as="geometry">
            <mxRectangle width="150" height="30" as="alternateBounds" />
          </mxGeometry>
        </mxCell>
        <mxCell id="nt-XfeTgK_7K62Uy94VP-64" value="" style="shape=tableRow;horizontal=0;startSize=0;swimlaneHead=0;swimlaneBody=0;fillColor=none;collapsible=0;dropTarget=0;points=[[0,0.5],[1,0.5]];portConstraint=eastwest;top=0;left=0;right=0;bottom=0;" vertex="1" parent="nt-XfeTgK_7K62Uy94VP-39">
          <mxGeometry y="210" width="180" height="30" as="geometry" />
        </mxCell>
        <mxCell id="nt-XfeTgK_7K62Uy94VP-65" value="" style="shape=partialRectangle;connectable=0;fillColor=none;top=0;left=0;bottom=0;right=0;editable=1;overflow=hidden;whiteSpace=wrap;html=1;" vertex="1" parent="nt-XfeTgK_7K62Uy94VP-64">
          <mxGeometry width="30" height="30" as="geometry">
            <mxRectangle width="30" height="30" as="alternateBounds" />
          </mxGeometry>
        </mxCell>
        <mxCell id="nt-XfeTgK_7K62Uy94VP-66" value="created_at" style="shape=partialRectangle;connectable=0;fillColor=none;top=0;left=0;bottom=0;right=0;align=left;spacingLeft=6;overflow=hidden;whiteSpace=wrap;html=1;" vertex="1" parent="nt-XfeTgK_7K62Uy94VP-64">
          <mxGeometry x="30" width="150" height="30" as="geometry">
            <mxRectangle width="150" height="30" as="alternateBounds" />
          </mxGeometry>
        </mxCell>
        <mxCell id="nt-XfeTgK_7K62Uy94VP-58" value="" style="shape=tableRow;horizontal=0;startSize=0;swimlaneHead=0;swimlaneBody=0;fillColor=none;collapsible=0;dropTarget=0;points=[[0,0.5],[1,0.5]];portConstraint=eastwest;top=0;left=0;right=0;bottom=0;" vertex="1" parent="nt-XfeTgK_7K62Uy94VP-39">
          <mxGeometry y="240" width="180" height="30" as="geometry" />
        </mxCell>
        <mxCell id="nt-XfeTgK_7K62Uy94VP-59" value="" style="shape=partialRectangle;connectable=0;fillColor=none;top=0;left=0;bottom=0;right=0;editable=1;overflow=hidden;whiteSpace=wrap;html=1;" vertex="1" parent="nt-XfeTgK_7K62Uy94VP-58">
          <mxGeometry width="30" height="30" as="geometry">
            <mxRectangle width="30" height="30" as="alternateBounds" />
          </mxGeometry>
        </mxCell>
        <mxCell id="nt-XfeTgK_7K62Uy94VP-60" value="updated_at" style="shape=partialRectangle;connectable=0;fillColor=none;top=0;left=0;bottom=0;right=0;align=left;spacingLeft=6;overflow=hidden;whiteSpace=wrap;html=1;" vertex="1" parent="nt-XfeTgK_7K62Uy94VP-58">
          <mxGeometry x="30" width="150" height="30" as="geometry">
            <mxRectangle width="150" height="30" as="alternateBounds" />
          </mxGeometry>
        </mxCell>
        <mxCell id="nt-XfeTgK_7K62Uy94VP-61" value="" style="shape=tableRow;horizontal=0;startSize=0;swimlaneHead=0;swimlaneBody=0;fillColor=none;collapsible=0;dropTarget=0;points=[[0,0.5],[1,0.5]];portConstraint=eastwest;top=0;left=0;right=0;bottom=1;" vertex="1" parent="nt-XfeTgK_7K62Uy94VP-39">
          <mxGeometry y="270" width="180" height="30" as="geometry" />
        </mxCell>
        <mxCell id="nt-XfeTgK_7K62Uy94VP-62" value="" style="shape=partialRectangle;connectable=0;fillColor=none;top=0;left=0;bottom=0;right=0;fontStyle=1;overflow=hidden;whiteSpace=wrap;html=1;" vertex="1" parent="nt-XfeTgK_7K62Uy94VP-61">
          <mxGeometry width="30" height="30" as="geometry">
            <mxRectangle width="30" height="30" as="alternateBounds" />
          </mxGeometry>
        </mxCell>
        <mxCell id="nt-XfeTgK_7K62Uy94VP-63" value="" style="shape=partialRectangle;connectable=0;fillColor=none;top=0;left=0;bottom=0;right=0;align=left;spacingLeft=6;fontStyle=5;overflow=hidden;whiteSpace=wrap;html=1;" vertex="1" parent="nt-XfeTgK_7K62Uy94VP-61">
          <mxGeometry x="30" width="150" height="30" as="geometry">
            <mxRectangle width="150" height="30" as="alternateBounds" />
          </mxGeometry>
        </mxCell>
        <mxCell id="nt-XfeTgK_7K62Uy94VP-67" value="" style="shape=tableRow;horizontal=0;startSize=0;swimlaneHead=0;swimlaneBody=0;fillColor=none;collapsible=0;dropTarget=0;points=[[0,0.5],[1,0.5]];portConstraint=eastwest;top=0;left=0;right=0;bottom=1;" vertex="1" parent="nt-XfeTgK_7K62Uy94VP-39">
          <mxGeometry y="300" width="180" height="30" as="geometry" />
        </mxCell>
        <mxCell id="nt-XfeTgK_7K62Uy94VP-68" value="FK" style="shape=partialRectangle;connectable=0;fillColor=none;top=0;left=0;bottom=0;right=0;fontStyle=1;overflow=hidden;whiteSpace=wrap;html=1;" vertex="1" parent="nt-XfeTgK_7K62Uy94VP-67">
          <mxGeometry width="30" height="30" as="geometry">
            <mxRectangle width="30" height="30" as="alternateBounds" />
          </mxGeometry>
        </mxCell>
        <mxCell id="nt-XfeTgK_7K62Uy94VP-69" value="user_id" style="shape=partialRectangle;connectable=0;fillColor=none;top=0;left=0;bottom=0;right=0;align=left;spacingLeft=6;fontStyle=5;overflow=hidden;whiteSpace=wrap;html=1;" vertex="1" parent="nt-XfeTgK_7K62Uy94VP-67">
          <mxGeometry x="30" width="150" height="30" as="geometry">
            <mxRectangle width="150" height="30" as="alternateBounds" />
          </mxGeometry>
        </mxCell>
        <mxCell id="nt-XfeTgK_7K62Uy94VP-101" value="Notifications" style="shape=table;startSize=30;container=1;collapsible=1;childLayout=tableLayout;fixedRows=1;rowLines=0;fontStyle=1;align=center;resizeLast=1;html=1;" vertex="1" parent="1">
          <mxGeometry x="560" y="160" width="180" height="240" as="geometry" />
        </mxCell>
        <mxCell id="nt-XfeTgK_7K62Uy94VP-102" value="" style="shape=tableRow;horizontal=0;startSize=0;swimlaneHead=0;swimlaneBody=0;fillColor=none;collapsible=0;dropTarget=0;points=[[0,0.5],[1,0.5]];portConstraint=eastwest;top=0;left=0;right=0;bottom=1;" vertex="1" parent="nt-XfeTgK_7K62Uy94VP-101">
          <mxGeometry y="30" width="180" height="30" as="geometry" />
        </mxCell>
        <mxCell id="nt-XfeTgK_7K62Uy94VP-103" value="PK" style="shape=partialRectangle;connectable=0;fillColor=none;top=0;left=0;bottom=0;right=0;fontStyle=1;overflow=hidden;whiteSpace=wrap;html=1;" vertex="1" parent="nt-XfeTgK_7K62Uy94VP-102">
          <mxGeometry width="30" height="30" as="geometry">
            <mxRectangle width="30" height="30" as="alternateBounds" />
          </mxGeometry>
        </mxCell>
        <mxCell id="nt-XfeTgK_7K62Uy94VP-104" value="id" style="shape=partialRectangle;connectable=0;fillColor=none;top=0;left=0;bottom=0;right=0;align=left;spacingLeft=6;fontStyle=5;overflow=hidden;whiteSpace=wrap;html=1;" vertex="1" parent="nt-XfeTgK_7K62Uy94VP-102">
          <mxGeometry x="30" width="150" height="30" as="geometry">
            <mxRectangle width="150" height="30" as="alternateBounds" />
          </mxGeometry>
        </mxCell>
        <mxCell id="nt-XfeTgK_7K62Uy94VP-105" value="" style="shape=tableRow;horizontal=0;startSize=0;swimlaneHead=0;swimlaneBody=0;fillColor=none;collapsible=0;dropTarget=0;points=[[0,0.5],[1,0.5]];portConstraint=eastwest;top=0;left=0;right=0;bottom=0;" vertex="1" parent="nt-XfeTgK_7K62Uy94VP-101">
          <mxGeometry y="60" width="180" height="30" as="geometry" />
        </mxCell>
        <mxCell id="nt-XfeTgK_7K62Uy94VP-106" value="" style="shape=partialRectangle;connectable=0;fillColor=none;top=0;left=0;bottom=0;right=0;editable=1;overflow=hidden;whiteSpace=wrap;html=1;" vertex="1" parent="nt-XfeTgK_7K62Uy94VP-105">
          <mxGeometry width="30" height="30" as="geometry">
            <mxRectangle width="30" height="30" as="alternateBounds" />
          </mxGeometry>
        </mxCell>
        <mxCell id="nt-XfeTgK_7K62Uy94VP-107" value="title" style="shape=partialRectangle;connectable=0;fillColor=none;top=0;left=0;bottom=0;right=0;align=left;spacingLeft=6;overflow=hidden;whiteSpace=wrap;html=1;" vertex="1" parent="nt-XfeTgK_7K62Uy94VP-105">
          <mxGeometry x="30" width="150" height="30" as="geometry">
            <mxRectangle width="150" height="30" as="alternateBounds" />
          </mxGeometry>
        </mxCell>
        <mxCell id="nt-XfeTgK_7K62Uy94VP-108" value="" style="shape=tableRow;horizontal=0;startSize=0;swimlaneHead=0;swimlaneBody=0;fillColor=none;collapsible=0;dropTarget=0;points=[[0,0.5],[1,0.5]];portConstraint=eastwest;top=0;left=0;right=0;bottom=0;" vertex="1" parent="nt-XfeTgK_7K62Uy94VP-101">
          <mxGeometry y="90" width="180" height="30" as="geometry" />
        </mxCell>
        <mxCell id="nt-XfeTgK_7K62Uy94VP-109" value="" style="shape=partialRectangle;connectable=0;fillColor=none;top=0;left=0;bottom=0;right=0;editable=1;overflow=hidden;whiteSpace=wrap;html=1;" vertex="1" parent="nt-XfeTgK_7K62Uy94VP-108">
          <mxGeometry width="30" height="30" as="geometry">
            <mxRectangle width="30" height="30" as="alternateBounds" />
          </mxGeometry>
        </mxCell>
        <mxCell id="nt-XfeTgK_7K62Uy94VP-110" value="content" style="shape=partialRectangle;connectable=0;fillColor=none;top=0;left=0;bottom=0;right=0;align=left;spacingLeft=6;overflow=hidden;whiteSpace=wrap;html=1;" vertex="1" parent="nt-XfeTgK_7K62Uy94VP-108">
          <mxGeometry x="30" width="150" height="30" as="geometry">
            <mxRectangle width="150" height="30" as="alternateBounds" />
          </mxGeometry>
        </mxCell>
        <mxCell id="nt-XfeTgK_7K62Uy94VP-111" value="" style="shape=tableRow;horizontal=0;startSize=0;swimlaneHead=0;swimlaneBody=0;fillColor=none;collapsible=0;dropTarget=0;points=[[0,0.5],[1,0.5]];portConstraint=eastwest;top=0;left=0;right=0;bottom=0;" vertex="1" parent="nt-XfeTgK_7K62Uy94VP-101">
          <mxGeometry y="120" width="180" height="30" as="geometry" />
        </mxCell>
        <mxCell id="nt-XfeTgK_7K62Uy94VP-112" value="" style="shape=partialRectangle;connectable=0;fillColor=none;top=0;left=0;bottom=0;right=0;editable=1;overflow=hidden;whiteSpace=wrap;html=1;" vertex="1" parent="nt-XfeTgK_7K62Uy94VP-111">
          <mxGeometry width="30" height="30" as="geometry">
            <mxRectangle width="30" height="30" as="alternateBounds" />
          </mxGeometry>
        </mxCell>
        <mxCell id="nt-XfeTgK_7K62Uy94VP-113" value="due_date" style="shape=partialRectangle;connectable=0;fillColor=none;top=0;left=0;bottom=0;right=0;align=left;spacingLeft=6;overflow=hidden;whiteSpace=wrap;html=1;" vertex="1" parent="nt-XfeTgK_7K62Uy94VP-111">
          <mxGeometry x="30" width="150" height="30" as="geometry">
            <mxRectangle width="150" height="30" as="alternateBounds" />
          </mxGeometry>
        </mxCell>
        <mxCell id="nt-XfeTgK_7K62Uy94VP-114" value="" style="shape=tableRow;horizontal=0;startSize=0;swimlaneHead=0;swimlaneBody=0;fillColor=none;collapsible=0;dropTarget=0;points=[[0,0.5],[1,0.5]];portConstraint=eastwest;top=0;left=0;right=0;bottom=0;" vertex="1" parent="nt-XfeTgK_7K62Uy94VP-101">
          <mxGeometry y="150" width="180" height="30" as="geometry" />
        </mxCell>
        <mxCell id="nt-XfeTgK_7K62Uy94VP-115" value="" style="shape=partialRectangle;connectable=0;fillColor=none;top=0;left=0;bottom=0;right=0;editable=1;overflow=hidden;whiteSpace=wrap;html=1;" vertex="1" parent="nt-XfeTgK_7K62Uy94VP-114">
          <mxGeometry width="30" height="30" as="geometry">
            <mxRectangle width="30" height="30" as="alternateBounds" />
          </mxGeometry>
        </mxCell>
        <mxCell id="nt-XfeTgK_7K62Uy94VP-116" value="created_at" style="shape=partialRectangle;connectable=0;fillColor=none;top=0;left=0;bottom=0;right=0;align=left;spacingLeft=6;overflow=hidden;whiteSpace=wrap;html=1;" vertex="1" parent="nt-XfeTgK_7K62Uy94VP-114">
          <mxGeometry x="30" width="150" height="30" as="geometry">
            <mxRectangle width="150" height="30" as="alternateBounds" />
          </mxGeometry>
        </mxCell>
        <mxCell id="nt-XfeTgK_7K62Uy94VP-125" value="" style="shape=tableRow;horizontal=0;startSize=0;swimlaneHead=0;swimlaneBody=0;fillColor=none;collapsible=0;dropTarget=0;points=[[0,0.5],[1,0.5]];portConstraint=eastwest;top=0;left=0;right=0;bottom=1;" vertex="1" parent="nt-XfeTgK_7K62Uy94VP-101">
          <mxGeometry y="180" width="180" height="30" as="geometry" />
        </mxCell>
        <mxCell id="nt-XfeTgK_7K62Uy94VP-126" value="" style="shape=partialRectangle;connectable=0;fillColor=none;top=0;left=0;bottom=0;right=0;fontStyle=1;overflow=hidden;whiteSpace=wrap;html=1;" vertex="1" parent="nt-XfeTgK_7K62Uy94VP-125">
          <mxGeometry width="30" height="30" as="geometry">
            <mxRectangle width="30" height="30" as="alternateBounds" />
          </mxGeometry>
        </mxCell>
        <mxCell id="nt-XfeTgK_7K62Uy94VP-127" value="" style="shape=partialRectangle;connectable=0;fillColor=none;top=0;left=0;bottom=0;right=0;align=left;spacingLeft=6;fontStyle=5;overflow=hidden;whiteSpace=wrap;html=1;" vertex="1" parent="nt-XfeTgK_7K62Uy94VP-125">
          <mxGeometry x="30" width="150" height="30" as="geometry">
            <mxRectangle width="150" height="30" as="alternateBounds" />
          </mxGeometry>
        </mxCell>
        <mxCell id="nt-XfeTgK_7K62Uy94VP-128" value="" style="shape=tableRow;horizontal=0;startSize=0;swimlaneHead=0;swimlaneBody=0;fillColor=none;collapsible=0;dropTarget=0;points=[[0,0.5],[1,0.5]];portConstraint=eastwest;top=0;left=0;right=0;bottom=1;" vertex="1" parent="nt-XfeTgK_7K62Uy94VP-101">
          <mxGeometry y="210" width="180" height="30" as="geometry" />
        </mxCell>
        <mxCell id="nt-XfeTgK_7K62Uy94VP-129" value="FK" style="shape=partialRectangle;connectable=0;fillColor=none;top=0;left=0;bottom=0;right=0;fontStyle=1;overflow=hidden;whiteSpace=wrap;html=1;" vertex="1" parent="nt-XfeTgK_7K62Uy94VP-128">
          <mxGeometry width="30" height="30" as="geometry">
            <mxRectangle width="30" height="30" as="alternateBounds" />
          </mxGeometry>
        </mxCell>
        <mxCell id="nt-XfeTgK_7K62Uy94VP-130" value="user_id" style="shape=partialRectangle;connectable=0;fillColor=none;top=0;left=0;bottom=0;right=0;align=left;spacingLeft=6;fontStyle=5;overflow=hidden;whiteSpace=wrap;html=1;" vertex="1" parent="nt-XfeTgK_7K62Uy94VP-128">
          <mxGeometry x="30" width="150" height="30" as="geometry">
            <mxRectangle width="150" height="30" as="alternateBounds" />
          </mxGeometry>
        </mxCell>
        <mxCell id="nt-XfeTgK_7K62Uy94VP-143" value="" style="edgeStyle=entityRelationEdgeStyle;fontSize=12;html=1;endArrow=ERoneToMany;rounded=0;exitX=0;exitY=0.5;exitDx=0;exitDy=0;entryX=1;entryY=0.5;entryDx=0;entryDy=0;" edge="1" parent="1" source="nt-XfeTgK_7K62Uy94VP-8" target="nt-XfeTgK_7K62Uy94VP-67">
          <mxGeometry width="100" height="100" relative="1" as="geometry">
            <mxPoint x="290" y="490" as="sourcePoint" />
            <mxPoint x="390" y="390" as="targetPoint" />
            <Array as="points">
              <mxPoint x="290" y="500" />
            </Array>
          </mxGeometry>
        </mxCell>
        <mxCell id="nt-XfeTgK_7K62Uy94VP-147" value="1" style="edgeLabel;html=1;align=center;verticalAlign=middle;resizable=0;points=[];" vertex="1" connectable="0" parent="nt-XfeTgK_7K62Uy94VP-143">
          <mxGeometry x="-0.5992" relative="1" as="geometry">
            <mxPoint as="offset" />
          </mxGeometry>
        </mxCell>
        <mxCell id="nt-XfeTgK_7K62Uy94VP-148" value="Many" style="edgeLabel;html=1;align=center;verticalAlign=middle;resizable=0;points=[];" vertex="1" connectable="0" parent="nt-XfeTgK_7K62Uy94VP-143">
          <mxGeometry x="0.6637" relative="1" as="geometry">
            <mxPoint as="offset" />
          </mxGeometry>
        </mxCell>
        <mxCell id="nt-XfeTgK_7K62Uy94VP-145" value="" style="edgeStyle=entityRelationEdgeStyle;fontSize=12;html=1;endArrow=ERoneToMany;rounded=0;exitX=1;exitY=0.5;exitDx=0;exitDy=0;entryX=0;entryY=0.5;entryDx=0;entryDy=0;" edge="1" parent="1" source="nt-XfeTgK_7K62Uy94VP-8" target="nt-XfeTgK_7K62Uy94VP-128">
          <mxGeometry width="100" height="100" relative="1" as="geometry">
            <mxPoint x="325" y="215" as="sourcePoint" />
            <mxPoint x="260" y="855" as="targetPoint" />
          </mxGeometry>
        </mxCell>
        <mxCell id="nt-XfeTgK_7K62Uy94VP-149" value="1" style="edgeLabel;html=1;align=center;verticalAlign=middle;resizable=0;points=[];" vertex="1" connectable="0" parent="nt-XfeTgK_7K62Uy94VP-145">
          <mxGeometry x="-0.4989" relative="1" as="geometry">
            <mxPoint as="offset" />
          </mxGeometry>
        </mxCell>
        <mxCell id="nt-XfeTgK_7K62Uy94VP-150" value="Many" style="edgeLabel;html=1;align=center;verticalAlign=middle;resizable=0;points=[];" vertex="1" connectable="0" parent="nt-XfeTgK_7K62Uy94VP-145">
          <mxGeometry x="0.5294" y="2" relative="1" as="geometry">
            <mxPoint as="offset" />
          </mxGeometry>
        </mxCell>
      </root>
    </mxGraphModel>
  </diagram>
  <diagram id="8EWlzDtOOGrAbNQcOG4r" name="use case">
    <mxGraphModel dx="926" dy="602" grid="1" gridSize="10" guides="1" tooltips="1" connect="1" arrows="1" fold="1" page="1" pageScale="1" pageWidth="827" pageHeight="1169" math="0" shadow="0">
      <root>
        <mxCell id="0" />
        <mxCell id="1" parent="0" />
        <mxCell id="gZXFy0_PWjFaVntMr7Q4-19" style="edgeStyle=none;rounded=0;orthogonalLoop=1;jettySize=auto;html=1;exitX=0.5;exitY=0.5;exitDx=0;exitDy=0;exitPerimeter=0;entryX=0.5;entryY=1;entryDx=0;entryDy=0;" edge="1" parent="1" source="gZXFy0_PWjFaVntMr7Q4-11" target="gZXFy0_PWjFaVntMr7Q4-14">
          <mxGeometry relative="1" as="geometry" />
        </mxCell>
        <mxCell id="gZXFy0_PWjFaVntMr7Q4-25" style="edgeStyle=none;rounded=0;orthogonalLoop=1;jettySize=auto;html=1;exitX=0.5;exitY=0.5;exitDx=0;exitDy=0;exitPerimeter=0;entryX=0;entryY=0.5;entryDx=0;entryDy=0;" edge="1" parent="1" source="gZXFy0_PWjFaVntMr7Q4-11" target="gZXFy0_PWjFaVntMr7Q4-21">
          <mxGeometry relative="1" as="geometry" />
        </mxCell>
        <mxCell id="gZXFy0_PWjFaVntMr7Q4-26" style="edgeStyle=none;rounded=0;orthogonalLoop=1;jettySize=auto;html=1;exitX=0.5;exitY=0.5;exitDx=0;exitDy=0;exitPerimeter=0;entryX=0;entryY=0.5;entryDx=0;entryDy=0;" edge="1" parent="1" source="gZXFy0_PWjFaVntMr7Q4-11" target="gZXFy0_PWjFaVntMr7Q4-22">
          <mxGeometry relative="1" as="geometry" />
        </mxCell>
        <mxCell id="gZXFy0_PWjFaVntMr7Q4-27" style="edgeStyle=none;rounded=0;orthogonalLoop=1;jettySize=auto;html=1;exitX=0.5;exitY=0.5;exitDx=0;exitDy=0;exitPerimeter=0;entryX=0;entryY=0.5;entryDx=0;entryDy=0;" edge="1" parent="1" source="gZXFy0_PWjFaVntMr7Q4-11" target="gZXFy0_PWjFaVntMr7Q4-23">
          <mxGeometry relative="1" as="geometry" />
        </mxCell>
        <mxCell id="gZXFy0_PWjFaVntMr7Q4-33" style="edgeStyle=none;rounded=0;orthogonalLoop=1;jettySize=auto;html=1;exitX=0.5;exitY=0.5;exitDx=0;exitDy=0;exitPerimeter=0;entryX=0;entryY=0.5;entryDx=0;entryDy=0;" edge="1" parent="1" source="gZXFy0_PWjFaVntMr7Q4-11" target="gZXFy0_PWjFaVntMr7Q4-15">
          <mxGeometry relative="1" as="geometry" />
        </mxCell>
        <mxCell id="gZXFy0_PWjFaVntMr7Q4-11" value="User" style="shape=umlActor;verticalLabelPosition=bottom;verticalAlign=top;html=1;" vertex="1" parent="1">
          <mxGeometry x="280" y="460" width="30" height="60" as="geometry" />
        </mxCell>
        <mxCell id="gZXFy0_PWjFaVntMr7Q4-14" value="Login" style="ellipse;whiteSpace=wrap;html=1;" vertex="1" parent="1">
          <mxGeometry x="340" y="230" width="140" height="70" as="geometry" />
        </mxCell>
        <mxCell id="gZXFy0_PWjFaVntMr7Q4-15" value="Register" style="ellipse;whiteSpace=wrap;html=1;" vertex="1" parent="1">
          <mxGeometry x="340" y="80" width="140" height="70" as="geometry" />
        </mxCell>
        <mxCell id="gZXFy0_PWjFaVntMr7Q4-16" value="&amp;lt;&amp;lt;include&amp;gt;&amp;gt;" style="endArrow=open;startArrow=none;endFill=0;startFill=0;endSize=8;html=1;verticalAlign=bottom;dashed=1;labelBackgroundColor=none;rounded=0;entryX=0.5;entryY=1;entryDx=0;entryDy=0;exitX=0.5;exitY=0;exitDx=0;exitDy=0;" edge="1" parent="1" source="gZXFy0_PWjFaVntMr7Q4-14" target="gZXFy0_PWjFaVntMr7Q4-15">
          <mxGeometry width="160" relative="1" as="geometry">
            <mxPoint x="500" y="180" as="sourcePoint" />
            <mxPoint x="576" y="320" as="targetPoint" />
          </mxGeometry>
        </mxCell>
        <mxCell id="gZXFy0_PWjFaVntMr7Q4-21" value="Create new Todo" style="ellipse;whiteSpace=wrap;html=1;" vertex="1" parent="1">
          <mxGeometry x="560" y="360" width="140" height="70" as="geometry" />
        </mxCell>
        <mxCell id="gZXFy0_PWjFaVntMr7Q4-22" value="Update Todo" style="ellipse;whiteSpace=wrap;html=1;" vertex="1" parent="1">
          <mxGeometry x="560" y="450" width="140" height="70" as="geometry" />
        </mxCell>
        <mxCell id="gZXFy0_PWjFaVntMr7Q4-23" value="Delete Todo" style="ellipse;whiteSpace=wrap;html=1;" vertex="1" parent="1">
          <mxGeometry x="560" y="540" width="140" height="70" as="geometry" />
        </mxCell>
        <mxCell id="gZXFy0_PWjFaVntMr7Q4-24" value="View List Todo" style="ellipse;whiteSpace=wrap;html=1;" vertex="1" parent="1">
          <mxGeometry x="560" y="640" width="140" height="70" as="geometry" />
        </mxCell>
        <mxCell id="gZXFy0_PWjFaVntMr7Q4-28" style="edgeStyle=none;rounded=0;orthogonalLoop=1;jettySize=auto;html=1;exitX=0.5;exitY=0.5;exitDx=0;exitDy=0;exitPerimeter=0;entryX=0.029;entryY=0.4;entryDx=0;entryDy=0;entryPerimeter=0;" edge="1" parent="1" source="gZXFy0_PWjFaVntMr7Q4-11" target="gZXFy0_PWjFaVntMr7Q4-24">
          <mxGeometry relative="1" as="geometry" />
        </mxCell>
        <mxCell id="gZXFy0_PWjFaVntMr7Q4-29" value="&amp;lt;&amp;lt;include&amp;gt;&amp;gt;" style="endArrow=open;startArrow=none;endFill=0;startFill=0;endSize=8;html=1;verticalAlign=bottom;dashed=1;labelBackgroundColor=none;rounded=0;exitX=0;exitY=0.5;exitDx=0;exitDy=0;entryX=0.5;entryY=1;entryDx=0;entryDy=0;" edge="1" parent="1" source="gZXFy0_PWjFaVntMr7Q4-21" target="gZXFy0_PWjFaVntMr7Q4-14">
          <mxGeometry width="160" relative="1" as="geometry">
            <mxPoint x="410" y="160" as="sourcePoint" />
            <mxPoint x="410" y="240" as="targetPoint" />
          </mxGeometry>
        </mxCell>
        <mxCell id="gZXFy0_PWjFaVntMr7Q4-30" value="&amp;lt;&amp;lt;include&amp;gt;&amp;gt;" style="endArrow=open;startArrow=none;endFill=0;startFill=0;endSize=8;html=1;verticalAlign=bottom;dashed=1;labelBackgroundColor=none;rounded=0;entryX=0.5;entryY=1;entryDx=0;entryDy=0;exitX=0;exitY=0.5;exitDx=0;exitDy=0;" edge="1" parent="1" source="gZXFy0_PWjFaVntMr7Q4-22" target="gZXFy0_PWjFaVntMr7Q4-14">
          <mxGeometry width="160" relative="1" as="geometry">
            <mxPoint x="470" y="430" as="sourcePoint" />
            <mxPoint x="410" y="310" as="targetPoint" />
          </mxGeometry>
        </mxCell>
        <mxCell id="gZXFy0_PWjFaVntMr7Q4-31" value="&amp;lt;&amp;lt;include&amp;gt;&amp;gt;" style="endArrow=open;startArrow=none;endFill=0;startFill=0;endSize=8;html=1;verticalAlign=bottom;dashed=1;labelBackgroundColor=none;rounded=0;exitX=0;exitY=0.5;exitDx=0;exitDy=0;" edge="1" parent="1" source="gZXFy0_PWjFaVntMr7Q4-23" target="gZXFy0_PWjFaVntMr7Q4-14">
          <mxGeometry width="160" relative="1" as="geometry">
            <mxPoint x="490" y="485" as="sourcePoint" />
            <mxPoint x="410" y="310" as="targetPoint" />
          </mxGeometry>
        </mxCell>
        <mxCell id="gZXFy0_PWjFaVntMr7Q4-32" value="&amp;lt;&amp;lt;include&amp;gt;&amp;gt;" style="endArrow=open;startArrow=none;endFill=0;startFill=0;endSize=8;html=1;verticalAlign=bottom;dashed=1;labelBackgroundColor=none;rounded=0;exitX=0.032;exitY=0.415;exitDx=0;exitDy=0;exitPerimeter=0;" edge="1" parent="1" source="gZXFy0_PWjFaVntMr7Q4-24" target="gZXFy0_PWjFaVntMr7Q4-14">
          <mxGeometry width="160" relative="1" as="geometry">
            <mxPoint x="490" y="575" as="sourcePoint" />
            <mxPoint x="419" y="310" as="targetPoint" />
          </mxGeometry>
        </mxCell>
      </root>
    </mxGraphModel>
  </diagram>
  <diagram id="uM5-0N6jhkK7QzOdek40" name="alur kerja">
    <mxGraphModel dx="1100" dy="1884" grid="1" gridSize="10" guides="1" tooltips="1" connect="1" arrows="1" fold="1" page="1" pageScale="1" pageWidth="827" pageHeight="1169" math="0" shadow="0">
      <root>
        <mxCell id="0" />
        <mxCell id="1" parent="0" />
        <mxCell id="0tXTzAAkVqV_0_9QSMRX-42" value="" style="edgeStyle=orthogonalEdgeStyle;rounded=0;orthogonalLoop=1;jettySize=auto;html=1;" edge="1" parent="1" source="0tXTzAAkVqV_0_9QSMRX-40" target="0tXTzAAkVqV_0_9QSMRX-41">
          <mxGeometry relative="1" as="geometry" />
        </mxCell>
        <mxCell id="0tXTzAAkVqV_0_9QSMRX-40" value="MULAI" style="strokeWidth=2;html=1;shape=mxgraph.flowchart.start_1;whiteSpace=wrap;" vertex="1" parent="1">
          <mxGeometry x="10" y="290" width="100" height="60" as="geometry" />
        </mxCell>
        <mxCell id="0tXTzAAkVqV_0_9QSMRX-44" value="" style="edgeStyle=orthogonalEdgeStyle;rounded=0;orthogonalLoop=1;jettySize=auto;html=1;" edge="1" parent="1" source="0tXTzAAkVqV_0_9QSMRX-41" target="0tXTzAAkVqV_0_9QSMRX-43">
          <mxGeometry relative="1" as="geometry" />
        </mxCell>
        <mxCell id="0tXTzAAkVqV_0_9QSMRX-41" value="Landing Page" style="whiteSpace=wrap;html=1;strokeWidth=2;" vertex="1" parent="1">
          <mxGeometry x="180" y="290" width="120" height="60" as="geometry" />
        </mxCell>
        <mxCell id="0tXTzAAkVqV_0_9QSMRX-56" value="" style="edgeStyle=orthogonalEdgeStyle;rounded=0;orthogonalLoop=1;jettySize=auto;html=1;" edge="1" parent="1" source="0tXTzAAkVqV_0_9QSMRX-43" target="0tXTzAAkVqV_0_9QSMRX-55">
          <mxGeometry relative="1" as="geometry" />
        </mxCell>
        <mxCell id="0tXTzAAkVqV_0_9QSMRX-57" value="Ya" style="edgeLabel;html=1;align=center;verticalAlign=middle;resizable=0;points=[];" vertex="1" connectable="0" parent="0tXTzAAkVqV_0_9QSMRX-56">
          <mxGeometry x="-0.2904" y="-1" relative="1" as="geometry">
            <mxPoint as="offset" />
          </mxGeometry>
        </mxCell>
        <mxCell id="0tXTzAAkVqV_0_9QSMRX-43" value="is Login" style="rhombus;whiteSpace=wrap;html=1;strokeWidth=2;" vertex="1" parent="1">
          <mxGeometry x="382" y="280" width="80" height="80" as="geometry" />
        </mxCell>
        <mxCell id="0tXTzAAkVqV_0_9QSMRX-47" value="" style="strokeWidth=2;html=1;shape=mxgraph.flowchart.annotation_2;align=left;labelPosition=right;pointerEvents=1;" vertex="1" parent="1">
          <mxGeometry x="519" y="270" width="50" height="100" as="geometry" />
        </mxCell>
        <mxCell id="0tXTzAAkVqV_0_9QSMRX-61" value="" style="edgeStyle=orthogonalEdgeStyle;rounded=0;orthogonalLoop=1;jettySize=auto;html=1;" edge="1" parent="1" source="0tXTzAAkVqV_0_9QSMRX-50" target="0tXTzAAkVqV_0_9QSMRX-60">
          <mxGeometry relative="1" as="geometry" />
        </mxCell>
        <mxCell id="0tXTzAAkVqV_0_9QSMRX-50" value="Login" style="whiteSpace=wrap;html=1;strokeWidth=2;" vertex="1" parent="1">
          <mxGeometry x="569" y="240" width="120" height="60" as="geometry" />
        </mxCell>
        <mxCell id="0tXTzAAkVqV_0_9QSMRX-63" value="" style="edgeStyle=orthogonalEdgeStyle;rounded=0;orthogonalLoop=1;jettySize=auto;html=1;" edge="1" parent="1" source="0tXTzAAkVqV_0_9QSMRX-51" target="0tXTzAAkVqV_0_9QSMRX-62">
          <mxGeometry relative="1" as="geometry" />
        </mxCell>
        <mxCell id="0tXTzAAkVqV_0_9QSMRX-51" value="Register" style="whiteSpace=wrap;html=1;strokeWidth=2;" vertex="1" parent="1">
          <mxGeometry x="569" y="340" width="120" height="60" as="geometry" />
        </mxCell>
        <mxCell id="0tXTzAAkVqV_0_9QSMRX-53" style="edgeStyle=orthogonalEdgeStyle;rounded=0;orthogonalLoop=1;jettySize=auto;html=1;exitX=1;exitY=0.5;exitDx=0;exitDy=0;entryX=0;entryY=0.5;entryDx=0;entryDy=0;entryPerimeter=0;" edge="1" parent="1" source="0tXTzAAkVqV_0_9QSMRX-43" target="0tXTzAAkVqV_0_9QSMRX-47">
          <mxGeometry relative="1" as="geometry" />
        </mxCell>
        <mxCell id="0tXTzAAkVqV_0_9QSMRX-54" value="NO" style="edgeLabel;html=1;align=center;verticalAlign=middle;resizable=0;points=[];" vertex="1" connectable="0" parent="0tXTzAAkVqV_0_9QSMRX-53">
          <mxGeometry x="-0.1105" relative="1" as="geometry">
            <mxPoint as="offset" />
          </mxGeometry>
        </mxCell>
        <mxCell id="0tXTzAAkVqV_0_9QSMRX-128" value="" style="edgeStyle=orthogonalEdgeStyle;rounded=0;orthogonalLoop=1;jettySize=auto;html=1;" edge="1" parent="1" source="0tXTzAAkVqV_0_9QSMRX-55" target="0tXTzAAkVqV_0_9QSMRX-127">
          <mxGeometry relative="1" as="geometry" />
        </mxCell>
        <mxCell id="0tXTzAAkVqV_0_9QSMRX-142" style="edgeStyle=orthogonalEdgeStyle;rounded=0;orthogonalLoop=1;jettySize=auto;html=1;exitX=0.5;exitY=0;exitDx=0;exitDy=0;entryX=0.5;entryY=1;entryDx=0;entryDy=0;" edge="1" parent="1" source="0tXTzAAkVqV_0_9QSMRX-55" target="0tXTzAAkVqV_0_9QSMRX-135">
          <mxGeometry relative="1" as="geometry" />
        </mxCell>
        <mxCell id="0tXTzAAkVqV_0_9QSMRX-143" style="edgeStyle=orthogonalEdgeStyle;rounded=0;orthogonalLoop=1;jettySize=auto;html=1;exitX=0.5;exitY=0;exitDx=0;exitDy=0;entryX=0.5;entryY=1;entryDx=0;entryDy=0;" edge="1" parent="1" source="0tXTzAAkVqV_0_9QSMRX-55" target="0tXTzAAkVqV_0_9QSMRX-137">
          <mxGeometry relative="1" as="geometry" />
        </mxCell>
        <mxCell id="0tXTzAAkVqV_0_9QSMRX-144" style="edgeStyle=orthogonalEdgeStyle;rounded=0;orthogonalLoop=1;jettySize=auto;html=1;exitX=0.5;exitY=0;exitDx=0;exitDy=0;entryX=0.5;entryY=1;entryDx=0;entryDy=0;" edge="1" parent="1" source="0tXTzAAkVqV_0_9QSMRX-55" target="0tXTzAAkVqV_0_9QSMRX-138">
          <mxGeometry relative="1" as="geometry" />
        </mxCell>
        <mxCell id="0tXTzAAkVqV_0_9QSMRX-55" value="Dashboard" style="whiteSpace=wrap;html=1;strokeWidth=2;" vertex="1" parent="1">
          <mxGeometry x="362" y="40" width="120" height="60" as="geometry" />
        </mxCell>
        <mxCell id="0tXTzAAkVqV_0_9QSMRX-77" value="" style="edgeStyle=orthogonalEdgeStyle;rounded=0;orthogonalLoop=1;jettySize=auto;html=1;" edge="1" parent="1" source="0tXTzAAkVqV_0_9QSMRX-60" target="0tXTzAAkVqV_0_9QSMRX-76">
          <mxGeometry relative="1" as="geometry" />
        </mxCell>
        <mxCell id="0tXTzAAkVqV_0_9QSMRX-60" value="Input&amp;nbsp;&lt;div&gt;Email , Password&lt;/div&gt;" style="shape=parallelogram;perimeter=parallelogramPerimeter;whiteSpace=wrap;html=1;fixedSize=1;strokeWidth=2;" vertex="1" parent="1">
          <mxGeometry x="769" y="240" width="120" height="60" as="geometry" />
        </mxCell>
        <mxCell id="0tXTzAAkVqV_0_9QSMRX-67" value="" style="edgeStyle=orthogonalEdgeStyle;rounded=0;orthogonalLoop=1;jettySize=auto;html=1;entryX=0;entryY=0.5;entryDx=0;entryDy=0;" edge="1" parent="1" source="0tXTzAAkVqV_0_9QSMRX-62" target="0tXTzAAkVqV_0_9QSMRX-68">
          <mxGeometry relative="1" as="geometry">
            <mxPoint x="969" y="370" as="targetPoint" />
          </mxGeometry>
        </mxCell>
        <mxCell id="0tXTzAAkVqV_0_9QSMRX-62" value="Input&amp;nbsp;&lt;div&gt;name , email , password&lt;/div&gt;" style="shape=parallelogram;perimeter=parallelogramPerimeter;whiteSpace=wrap;html=1;fixedSize=1;strokeWidth=2;" vertex="1" parent="1">
          <mxGeometry x="769" y="340" width="120" height="60" as="geometry" />
        </mxCell>
        <mxCell id="0tXTzAAkVqV_0_9QSMRX-73" value="" style="edgeStyle=orthogonalEdgeStyle;rounded=0;orthogonalLoop=1;jettySize=auto;html=1;" edge="1" parent="1" source="0tXTzAAkVqV_0_9QSMRX-68" target="0tXTzAAkVqV_0_9QSMRX-71">
          <mxGeometry relative="1" as="geometry" />
        </mxCell>
        <mxCell id="0tXTzAAkVqV_0_9QSMRX-74" value="Tidak Valid" style="edgeLabel;html=1;align=center;verticalAlign=middle;resizable=0;points=[];" vertex="1" connectable="0" parent="0tXTzAAkVqV_0_9QSMRX-73">
          <mxGeometry x="-0.1318" y="-1" relative="1" as="geometry">
            <mxPoint y="1" as="offset" />
          </mxGeometry>
        </mxCell>
        <mxCell id="0tXTzAAkVqV_0_9QSMRX-92" value="" style="edgeStyle=orthogonalEdgeStyle;rounded=0;orthogonalLoop=1;jettySize=auto;html=1;" edge="1" parent="1" source="0tXTzAAkVqV_0_9QSMRX-68" target="0tXTzAAkVqV_0_9QSMRX-91">
          <mxGeometry relative="1" as="geometry" />
        </mxCell>
        <mxCell id="0tXTzAAkVqV_0_9QSMRX-68" value="Validasi&amp;nbsp;&lt;div&gt;Input&lt;/div&gt;" style="rhombus;whiteSpace=wrap;html=1;strokeWidth=2;" vertex="1" parent="1">
          <mxGeometry x="1000" y="330" width="80" height="80" as="geometry" />
        </mxCell>
        <mxCell id="0tXTzAAkVqV_0_9QSMRX-72" style="edgeStyle=orthogonalEdgeStyle;rounded=0;orthogonalLoop=1;jettySize=auto;html=1;exitX=0;exitY=0.5;exitDx=0;exitDy=0;exitPerimeter=0;entryX=0.5;entryY=1;entryDx=0;entryDy=0;" edge="1" parent="1" source="0tXTzAAkVqV_0_9QSMRX-71" target="0tXTzAAkVqV_0_9QSMRX-51">
          <mxGeometry relative="1" as="geometry" />
        </mxCell>
        <mxCell id="0tXTzAAkVqV_0_9QSMRX-71" value="Error Message" style="strokeWidth=2;html=1;shape=mxgraph.flowchart.display;whiteSpace=wrap;" vertex="1" parent="1">
          <mxGeometry x="990" y="460" width="100" height="60" as="geometry" />
        </mxCell>
        <mxCell id="0tXTzAAkVqV_0_9QSMRX-83" value="" style="edgeStyle=orthogonalEdgeStyle;rounded=0;orthogonalLoop=1;jettySize=auto;html=1;" edge="1" parent="1" source="0tXTzAAkVqV_0_9QSMRX-76" target="0tXTzAAkVqV_0_9QSMRX-78">
          <mxGeometry relative="1" as="geometry" />
        </mxCell>
        <mxCell id="0tXTzAAkVqV_0_9QSMRX-84" value="Tidak Valid" style="edgeLabel;html=1;align=center;verticalAlign=middle;resizable=0;points=[];" vertex="1" connectable="0" parent="0tXTzAAkVqV_0_9QSMRX-83">
          <mxGeometry x="-0.0357" y="1" relative="1" as="geometry">
            <mxPoint as="offset" />
          </mxGeometry>
        </mxCell>
        <mxCell id="0tXTzAAkVqV_0_9QSMRX-88" value="" style="edgeStyle=orthogonalEdgeStyle;rounded=0;orthogonalLoop=1;jettySize=auto;html=1;" edge="1" parent="1" source="0tXTzAAkVqV_0_9QSMRX-76" target="0tXTzAAkVqV_0_9QSMRX-87">
          <mxGeometry relative="1" as="geometry" />
        </mxCell>
        <mxCell id="0tXTzAAkVqV_0_9QSMRX-76" value="Validasi&lt;div&gt;Input&lt;/div&gt;" style="rhombus;whiteSpace=wrap;html=1;strokeWidth=2;" vertex="1" parent="1">
          <mxGeometry x="999" y="230" width="80" height="80" as="geometry" />
        </mxCell>
        <mxCell id="0tXTzAAkVqV_0_9QSMRX-80" style="edgeStyle=orthogonalEdgeStyle;rounded=0;orthogonalLoop=1;jettySize=auto;html=1;entryX=0.5;entryY=0;entryDx=0;entryDy=0;" edge="1" parent="1" source="0tXTzAAkVqV_0_9QSMRX-78" target="0tXTzAAkVqV_0_9QSMRX-50">
          <mxGeometry relative="1" as="geometry" />
        </mxCell>
        <mxCell id="0tXTzAAkVqV_0_9QSMRX-78" value="Error Message" style="strokeWidth=2;html=1;shape=mxgraph.flowchart.display;whiteSpace=wrap;" vertex="1" parent="1">
          <mxGeometry x="989" y="130" width="100" height="60" as="geometry" />
        </mxCell>
        <mxCell id="0tXTzAAkVqV_0_9QSMRX-102" value="" style="edgeStyle=orthogonalEdgeStyle;rounded=0;orthogonalLoop=1;jettySize=auto;html=1;" edge="1" parent="1" source="0tXTzAAkVqV_0_9QSMRX-87" target="0tXTzAAkVqV_0_9QSMRX-101">
          <mxGeometry relative="1" as="geometry" />
        </mxCell>
        <mxCell id="0tXTzAAkVqV_0_9QSMRX-87" value="Cek Email Terdaftar" style="shape=process;whiteSpace=wrap;html=1;backgroundOutline=1;strokeWidth=2;" vertex="1" parent="1">
          <mxGeometry x="1139" y="240" width="120" height="60" as="geometry" />
        </mxCell>
        <mxCell id="0tXTzAAkVqV_0_9QSMRX-97" value="" style="edgeStyle=orthogonalEdgeStyle;rounded=0;orthogonalLoop=1;jettySize=auto;html=1;" edge="1" parent="1" source="0tXTzAAkVqV_0_9QSMRX-91" target="0tXTzAAkVqV_0_9QSMRX-93">
          <mxGeometry relative="1" as="geometry" />
        </mxCell>
        <mxCell id="0tXTzAAkVqV_0_9QSMRX-91" value="Insert data to Database" style="shape=process;whiteSpace=wrap;html=1;backgroundOutline=1;strokeWidth=2;" vertex="1" parent="1">
          <mxGeometry x="1140" y="340" width="120" height="60" as="geometry" />
        </mxCell>
        <mxCell id="0tXTzAAkVqV_0_9QSMRX-114" value="" style="edgeStyle=orthogonalEdgeStyle;rounded=0;orthogonalLoop=1;jettySize=auto;html=1;" edge="1" parent="1" source="0tXTzAAkVqV_0_9QSMRX-93" target="0tXTzAAkVqV_0_9QSMRX-113">
          <mxGeometry relative="1" as="geometry" />
        </mxCell>
        <mxCell id="0tXTzAAkVqV_0_9QSMRX-93" value="&lt;div&gt;&lt;br&gt;&lt;/div&gt;&lt;div&gt;db&lt;/div&gt;" style="strokeWidth=2;html=1;shape=mxgraph.flowchart.database;whiteSpace=wrap;" vertex="1" parent="1">
          <mxGeometry x="1369" y="340" width="60" height="60" as="geometry" />
        </mxCell>
        <mxCell id="0tXTzAAkVqV_0_9QSMRX-100" value="" style="edgeStyle=orthogonalEdgeStyle;rounded=0;orthogonalLoop=1;jettySize=auto;html=1;" edge="1" parent="1" source="0tXTzAAkVqV_0_9QSMRX-98" target="0tXTzAAkVqV_0_9QSMRX-87">
          <mxGeometry relative="1" as="geometry" />
        </mxCell>
        <mxCell id="0tXTzAAkVqV_0_9QSMRX-98" value="&lt;div&gt;&lt;br&gt;&lt;/div&gt;&lt;div&gt;db&lt;/div&gt;" style="strokeWidth=2;html=1;shape=mxgraph.flowchart.database;whiteSpace=wrap;" vertex="1" parent="1">
          <mxGeometry x="1170" y="140" width="60" height="60" as="geometry" />
        </mxCell>
        <mxCell id="0tXTzAAkVqV_0_9QSMRX-108" value="" style="edgeStyle=orthogonalEdgeStyle;rounded=0;orthogonalLoop=1;jettySize=auto;html=1;" edge="1" parent="1" source="0tXTzAAkVqV_0_9QSMRX-101" target="0tXTzAAkVqV_0_9QSMRX-107">
          <mxGeometry relative="1" as="geometry" />
        </mxCell>
        <mxCell id="0tXTzAAkVqV_0_9QSMRX-101" value="email&amp;nbsp;&lt;div&gt;terdaftar&lt;/div&gt;" style="rhombus;whiteSpace=wrap;html=1;strokeWidth=2;" vertex="1" parent="1">
          <mxGeometry x="1359" y="230" width="80" height="80" as="geometry" />
        </mxCell>
        <mxCell id="0tXTzAAkVqV_0_9QSMRX-122" value="" style="edgeStyle=orthogonalEdgeStyle;rounded=0;orthogonalLoop=1;jettySize=auto;html=1;" edge="1" parent="1" source="0tXTzAAkVqV_0_9QSMRX-107" target="0tXTzAAkVqV_0_9QSMRX-121">
          <mxGeometry relative="1" as="geometry" />
        </mxCell>
        <mxCell id="0tXTzAAkVqV_0_9QSMRX-126" value="Valid" style="edgeLabel;html=1;align=center;verticalAlign=middle;resizable=0;points=[];" vertex="1" connectable="0" parent="0tXTzAAkVqV_0_9QSMRX-122">
          <mxGeometry x="-0.2658" relative="1" as="geometry">
            <mxPoint as="offset" />
          </mxGeometry>
        </mxCell>
        <mxCell id="0tXTzAAkVqV_0_9QSMRX-107" value="password&lt;div&gt;hash cek&lt;/div&gt;" style="rhombus;whiteSpace=wrap;html=1;strokeWidth=2;" vertex="1" parent="1">
          <mxGeometry x="1519" y="230" width="80" height="80" as="geometry" />
        </mxCell>
        <mxCell id="0tXTzAAkVqV_0_9QSMRX-109" style="edgeStyle=orthogonalEdgeStyle;rounded=0;orthogonalLoop=1;jettySize=auto;html=1;exitX=0.5;exitY=0;exitDx=0;exitDy=0;entryX=0.5;entryY=0;entryDx=0;entryDy=0;entryPerimeter=0;" edge="1" parent="1" source="0tXTzAAkVqV_0_9QSMRX-101" target="0tXTzAAkVqV_0_9QSMRX-78">
          <mxGeometry relative="1" as="geometry" />
        </mxCell>
        <mxCell id="0tXTzAAkVqV_0_9QSMRX-111" value="Tidak Terdaftar" style="edgeLabel;html=1;align=center;verticalAlign=middle;resizable=0;points=[];" vertex="1" connectable="0" parent="0tXTzAAkVqV_0_9QSMRX-109">
          <mxGeometry x="-0.8524" relative="1" as="geometry">
            <mxPoint as="offset" />
          </mxGeometry>
        </mxCell>
        <mxCell id="0tXTzAAkVqV_0_9QSMRX-110" style="edgeStyle=orthogonalEdgeStyle;rounded=0;orthogonalLoop=1;jettySize=auto;html=1;exitX=0.5;exitY=0;exitDx=0;exitDy=0;entryX=0.5;entryY=0;entryDx=0;entryDy=0;entryPerimeter=0;" edge="1" parent="1" source="0tXTzAAkVqV_0_9QSMRX-107" target="0tXTzAAkVqV_0_9QSMRX-78">
          <mxGeometry relative="1" as="geometry" />
        </mxCell>
        <mxCell id="0tXTzAAkVqV_0_9QSMRX-112" value="Tidak Valid" style="edgeLabel;html=1;align=center;verticalAlign=middle;resizable=0;points=[];" vertex="1" connectable="0" parent="0tXTzAAkVqV_0_9QSMRX-110">
          <mxGeometry x="-0.891" y="-2" relative="1" as="geometry">
            <mxPoint as="offset" />
          </mxGeometry>
        </mxCell>
        <mxCell id="0tXTzAAkVqV_0_9QSMRX-118" value="" style="edgeStyle=orthogonalEdgeStyle;rounded=0;orthogonalLoop=1;jettySize=auto;html=1;" edge="1" parent="1" source="0tXTzAAkVqV_0_9QSMRX-113" target="0tXTzAAkVqV_0_9QSMRX-117">
          <mxGeometry relative="1" as="geometry" />
        </mxCell>
        <mxCell id="0tXTzAAkVqV_0_9QSMRX-119" value="berhasil" style="edgeLabel;html=1;align=center;verticalAlign=middle;resizable=0;points=[];" vertex="1" connectable="0" parent="0tXTzAAkVqV_0_9QSMRX-118">
          <mxGeometry x="-0.0924" y="1" relative="1" as="geometry">
            <mxPoint as="offset" />
          </mxGeometry>
        </mxCell>
        <mxCell id="0tXTzAAkVqV_0_9QSMRX-113" value="Berhasil Tersimpan" style="rhombus;whiteSpace=wrap;html=1;strokeWidth=2;" vertex="1" parent="1">
          <mxGeometry x="1499" y="330" width="80" height="80" as="geometry" />
        </mxCell>
        <mxCell id="0tXTzAAkVqV_0_9QSMRX-115" style="edgeStyle=orthogonalEdgeStyle;rounded=0;orthogonalLoop=1;jettySize=auto;html=1;exitX=1;exitY=0.5;exitDx=0;exitDy=0;entryX=0.5;entryY=1;entryDx=0;entryDy=0;entryPerimeter=0;" edge="1" parent="1" source="0tXTzAAkVqV_0_9QSMRX-113" target="0tXTzAAkVqV_0_9QSMRX-71">
          <mxGeometry relative="1" as="geometry">
            <Array as="points">
              <mxPoint x="1630" y="370" />
              <mxPoint x="1630" y="550" />
              <mxPoint x="1040" y="550" />
            </Array>
          </mxGeometry>
        </mxCell>
        <mxCell id="0tXTzAAkVqV_0_9QSMRX-116" value="gagal" style="edgeLabel;html=1;align=center;verticalAlign=middle;resizable=0;points=[];" vertex="1" connectable="0" parent="0tXTzAAkVqV_0_9QSMRX-115">
          <mxGeometry x="-0.9498" y="1" relative="1" as="geometry">
            <mxPoint as="offset" />
          </mxGeometry>
        </mxCell>
        <mxCell id="0tXTzAAkVqV_0_9QSMRX-120" style="edgeStyle=orthogonalEdgeStyle;rounded=0;orthogonalLoop=1;jettySize=auto;html=1;exitX=0.5;exitY=1;exitDx=0;exitDy=0;exitPerimeter=0;entryX=0.5;entryY=1;entryDx=0;entryDy=0;" edge="1" parent="1" source="0tXTzAAkVqV_0_9QSMRX-117" target="0tXTzAAkVqV_0_9QSMRX-43">
          <mxGeometry relative="1" as="geometry">
            <Array as="points">
              <mxPoint x="1539" y="580" />
              <mxPoint x="422" y="580" />
            </Array>
          </mxGeometry>
        </mxCell>
        <mxCell id="0tXTzAAkVqV_0_9QSMRX-117" value="success message" style="strokeWidth=2;html=1;shape=mxgraph.flowchart.display;whiteSpace=wrap;" vertex="1" parent="1">
          <mxGeometry x="1489" y="450" width="100" height="60" as="geometry" />
        </mxCell>
        <mxCell id="0tXTzAAkVqV_0_9QSMRX-121" value="session auth" style="strokeWidth=2;html=1;shape=mxgraph.flowchart.stored_data;whiteSpace=wrap;" vertex="1" parent="1">
          <mxGeometry x="1654" y="240" width="100" height="60" as="geometry" />
        </mxCell>
        <mxCell id="0tXTzAAkVqV_0_9QSMRX-125" style="edgeStyle=orthogonalEdgeStyle;rounded=0;orthogonalLoop=1;jettySize=auto;html=1;entryX=1;entryY=0.5;entryDx=0;entryDy=0;" edge="1" parent="1" source="0tXTzAAkVqV_0_9QSMRX-123" target="0tXTzAAkVqV_0_9QSMRX-55">
          <mxGeometry relative="1" as="geometry" />
        </mxCell>
        <mxCell id="0tXTzAAkVqV_0_9QSMRX-123" value="success message" style="strokeWidth=2;html=1;shape=mxgraph.flowchart.display;whiteSpace=wrap;" vertex="1" parent="1">
          <mxGeometry x="1654" y="40" width="100" height="60" as="geometry" />
        </mxCell>
        <mxCell id="0tXTzAAkVqV_0_9QSMRX-124" style="edgeStyle=orthogonalEdgeStyle;rounded=0;orthogonalLoop=1;jettySize=auto;html=1;entryX=0.5;entryY=1;entryDx=0;entryDy=0;entryPerimeter=0;" edge="1" parent="1" source="0tXTzAAkVqV_0_9QSMRX-121" target="0tXTzAAkVqV_0_9QSMRX-123">
          <mxGeometry relative="1" as="geometry" />
        </mxCell>
        <mxCell id="0tXTzAAkVqV_0_9QSMRX-186" value="" style="edgeStyle=orthogonalEdgeStyle;rounded=0;orthogonalLoop=1;jettySize=auto;html=1;entryX=0.5;entryY=0;entryDx=0;entryDy=0;" edge="1" parent="1" source="0tXTzAAkVqV_0_9QSMRX-127" target="0tXTzAAkVqV_0_9QSMRX-41">
          <mxGeometry relative="1" as="geometry">
            <mxPoint x="240.04347826086962" y="199.99999999999977" as="targetPoint" />
          </mxGeometry>
        </mxCell>
        <mxCell id="0tXTzAAkVqV_0_9QSMRX-127" value="Logout" style="whiteSpace=wrap;html=1;strokeWidth=2;" vertex="1" parent="1">
          <mxGeometry x="180" y="110" width="120" height="60" as="geometry" />
        </mxCell>
        <mxCell id="0tXTzAAkVqV_0_9QSMRX-148" value="" style="edgeStyle=orthogonalEdgeStyle;rounded=0;orthogonalLoop=1;jettySize=auto;html=1;" edge="1" parent="1" source="0tXTzAAkVqV_0_9QSMRX-135" target="0tXTzAAkVqV_0_9QSMRX-147">
          <mxGeometry relative="1" as="geometry" />
        </mxCell>
        <mxCell id="0tXTzAAkVqV_0_9QSMRX-135" value="Add Todo" style="whiteSpace=wrap;html=1;strokeWidth=2;" vertex="1" parent="1">
          <mxGeometry x="180" y="-100" width="120" height="60" as="geometry" />
        </mxCell>
        <mxCell id="0tXTzAAkVqV_0_9QSMRX-146" value="" style="edgeStyle=orthogonalEdgeStyle;rounded=0;orthogonalLoop=1;jettySize=auto;html=1;" edge="1" parent="1" source="0tXTzAAkVqV_0_9QSMRX-137" target="0tXTzAAkVqV_0_9QSMRX-145">
          <mxGeometry relative="1" as="geometry" />
        </mxCell>
        <mxCell id="0tXTzAAkVqV_0_9QSMRX-137" value="Edit Todo" style="whiteSpace=wrap;html=1;strokeWidth=2;" vertex="1" parent="1">
          <mxGeometry x="362" y="-100" width="120" height="60" as="geometry" />
        </mxCell>
        <mxCell id="0tXTzAAkVqV_0_9QSMRX-150" value="" style="edgeStyle=orthogonalEdgeStyle;rounded=0;orthogonalLoop=1;jettySize=auto;html=1;" edge="1" parent="1" source="0tXTzAAkVqV_0_9QSMRX-138" target="0tXTzAAkVqV_0_9QSMRX-149">
          <mxGeometry relative="1" as="geometry" />
        </mxCell>
        <mxCell id="0tXTzAAkVqV_0_9QSMRX-138" value="Remove Todo" style="whiteSpace=wrap;html=1;strokeWidth=2;" vertex="1" parent="1">
          <mxGeometry x="530" y="-100" width="120" height="60" as="geometry" />
        </mxCell>
        <mxCell id="0tXTzAAkVqV_0_9QSMRX-159" value="" style="edgeStyle=orthogonalEdgeStyle;rounded=0;orthogonalLoop=1;jettySize=auto;html=1;" edge="1" parent="1" source="0tXTzAAkVqV_0_9QSMRX-145" target="0tXTzAAkVqV_0_9QSMRX-158">
          <mxGeometry relative="1" as="geometry" />
        </mxCell>
        <mxCell id="0tXTzAAkVqV_0_9QSMRX-145" value="Form Edit Todo" style="whiteSpace=wrap;html=1;strokeWidth=2;" vertex="1" parent="1">
          <mxGeometry x="362" y="-240" width="120" height="60" as="geometry" />
        </mxCell>
        <mxCell id="0tXTzAAkVqV_0_9QSMRX-161" value="" style="edgeStyle=orthogonalEdgeStyle;rounded=0;orthogonalLoop=1;jettySize=auto;html=1;" edge="1" parent="1" source="0tXTzAAkVqV_0_9QSMRX-147" target="0tXTzAAkVqV_0_9QSMRX-160">
          <mxGeometry relative="1" as="geometry" />
        </mxCell>
        <mxCell id="0tXTzAAkVqV_0_9QSMRX-147" value="Form Add Todo" style="whiteSpace=wrap;html=1;strokeWidth=2;" vertex="1" parent="1">
          <mxGeometry x="180" y="-240" width="120" height="60" as="geometry" />
        </mxCell>
        <mxCell id="0tXTzAAkVqV_0_9QSMRX-151" style="edgeStyle=orthogonalEdgeStyle;rounded=0;orthogonalLoop=1;jettySize=auto;html=1;exitX=0.5;exitY=1;exitDx=0;exitDy=0;entryX=0.75;entryY=0;entryDx=0;entryDy=0;" edge="1" parent="1" source="0tXTzAAkVqV_0_9QSMRX-149" target="0tXTzAAkVqV_0_9QSMRX-55">
          <mxGeometry relative="1" as="geometry">
            <Array as="points">
              <mxPoint x="790" y="20" />
              <mxPoint x="452" y="20" />
            </Array>
          </mxGeometry>
        </mxCell>
        <mxCell id="0tXTzAAkVqV_0_9QSMRX-152" value="batal" style="edgeLabel;html=1;align=center;verticalAlign=middle;resizable=0;points=[];" vertex="1" connectable="0" parent="0tXTzAAkVqV_0_9QSMRX-151">
          <mxGeometry x="-0.9154" y="1" relative="1" as="geometry">
            <mxPoint as="offset" />
          </mxGeometry>
        </mxCell>
        <mxCell id="0tXTzAAkVqV_0_9QSMRX-156" value="" style="edgeStyle=orthogonalEdgeStyle;rounded=0;orthogonalLoop=1;jettySize=auto;html=1;" edge="1" parent="1" source="0tXTzAAkVqV_0_9QSMRX-149" target="0tXTzAAkVqV_0_9QSMRX-155">
          <mxGeometry relative="1" as="geometry" />
        </mxCell>
        <mxCell id="0tXTzAAkVqV_0_9QSMRX-157" value="Ya" style="edgeLabel;html=1;align=center;verticalAlign=middle;resizable=0;points=[];" vertex="1" connectable="0" parent="0tXTzAAkVqV_0_9QSMRX-156">
          <mxGeometry x="-0.1889" y="1" relative="1" as="geometry">
            <mxPoint as="offset" />
          </mxGeometry>
        </mxCell>
        <mxCell id="0tXTzAAkVqV_0_9QSMRX-149" value="Confirm Remove" style="rhombus;whiteSpace=wrap;html=1;strokeWidth=2;" vertex="1" parent="1">
          <mxGeometry x="750" y="-110" width="80" height="80" as="geometry" />
        </mxCell>
        <mxCell id="0tXTzAAkVqV_0_9QSMRX-155" value="Remove Todo" style="shape=process;whiteSpace=wrap;html=1;backgroundOutline=1;strokeWidth=2;" vertex="1" parent="1">
          <mxGeometry x="730" y="-380" width="120" height="60" as="geometry" />
        </mxCell>
        <mxCell id="0tXTzAAkVqV_0_9QSMRX-165" value="" style="edgeStyle=orthogonalEdgeStyle;rounded=0;orthogonalLoop=1;jettySize=auto;html=1;" edge="1" parent="1" source="0tXTzAAkVqV_0_9QSMRX-158" target="0tXTzAAkVqV_0_9QSMRX-164">
          <mxGeometry relative="1" as="geometry" />
        </mxCell>
        <mxCell id="0tXTzAAkVqV_0_9QSMRX-158" value="Update todo" style="shape=process;whiteSpace=wrap;html=1;backgroundOutline=1;strokeWidth=2;" vertex="1" parent="1">
          <mxGeometry x="362" y="-380" width="120" height="60" as="geometry" />
        </mxCell>
        <mxCell id="0tXTzAAkVqV_0_9QSMRX-160" value="Create new Todo" style="shape=process;whiteSpace=wrap;html=1;backgroundOutline=1;strokeWidth=2;" vertex="1" parent="1">
          <mxGeometry x="180" y="-380" width="120" height="60" as="geometry" />
        </mxCell>
        <mxCell id="0tXTzAAkVqV_0_9QSMRX-171" value="" style="edgeStyle=orthogonalEdgeStyle;rounded=0;orthogonalLoop=1;jettySize=auto;html=1;" edge="1" parent="1" source="0tXTzAAkVqV_0_9QSMRX-164" target="0tXTzAAkVqV_0_9QSMRX-170">
          <mxGeometry relative="1" as="geometry" />
        </mxCell>
        <mxCell id="0tXTzAAkVqV_0_9QSMRX-164" value="&lt;div&gt;&lt;br&gt;&lt;/div&gt;&lt;div&gt;DB&lt;/div&gt;" style="strokeWidth=2;html=1;shape=mxgraph.flowchart.database;whiteSpace=wrap;" vertex="1" parent="1">
          <mxGeometry x="550" y="-510" width="121" height="70" as="geometry" />
        </mxCell>
        <mxCell id="0tXTzAAkVqV_0_9QSMRX-168" style="edgeStyle=orthogonalEdgeStyle;rounded=0;orthogonalLoop=1;jettySize=auto;html=1;exitX=0.5;exitY=0;exitDx=0;exitDy=0;entryX=0;entryY=0.5;entryDx=0;entryDy=0;entryPerimeter=0;" edge="1" parent="1" source="0tXTzAAkVqV_0_9QSMRX-160" target="0tXTzAAkVqV_0_9QSMRX-164">
          <mxGeometry relative="1" as="geometry" />
        </mxCell>
        <mxCell id="0tXTzAAkVqV_0_9QSMRX-169" style="edgeStyle=orthogonalEdgeStyle;rounded=0;orthogonalLoop=1;jettySize=auto;html=1;exitX=0.5;exitY=0;exitDx=0;exitDy=0;entryX=1;entryY=0.5;entryDx=0;entryDy=0;entryPerimeter=0;" edge="1" parent="1" source="0tXTzAAkVqV_0_9QSMRX-155" target="0tXTzAAkVqV_0_9QSMRX-164">
          <mxGeometry relative="1" as="geometry" />
        </mxCell>
        <mxCell id="0tXTzAAkVqV_0_9QSMRX-174" value="" style="edgeStyle=orthogonalEdgeStyle;rounded=0;orthogonalLoop=1;jettySize=auto;html=1;" edge="1" parent="1" source="0tXTzAAkVqV_0_9QSMRX-170" target="0tXTzAAkVqV_0_9QSMRX-172">
          <mxGeometry relative="1" as="geometry" />
        </mxCell>
        <mxCell id="0tXTzAAkVqV_0_9QSMRX-176" value="success" style="edgeLabel;html=1;align=center;verticalAlign=middle;resizable=0;points=[];" vertex="1" connectable="0" parent="0tXTzAAkVqV_0_9QSMRX-174">
          <mxGeometry x="-0.1111" y="1" relative="1" as="geometry">
            <mxPoint as="offset" />
          </mxGeometry>
        </mxCell>
        <mxCell id="0tXTzAAkVqV_0_9QSMRX-170" value="Update database success" style="rhombus;whiteSpace=wrap;html=1;strokeWidth=2;" vertex="1" parent="1">
          <mxGeometry x="551" y="-650" width="119" height="90" as="geometry" />
        </mxCell>
        <mxCell id="0tXTzAAkVqV_0_9QSMRX-180" value="" style="edgeStyle=orthogonalEdgeStyle;rounded=0;orthogonalLoop=1;jettySize=auto;html=1;" edge="1" parent="1" source="0tXTzAAkVqV_0_9QSMRX-172" target="0tXTzAAkVqV_0_9QSMRX-179">
          <mxGeometry relative="1" as="geometry" />
        </mxCell>
        <mxCell id="0tXTzAAkVqV_0_9QSMRX-172" value="Succes Message" style="strokeWidth=2;html=1;shape=mxgraph.flowchart.display;whiteSpace=wrap;" vertex="1" parent="1">
          <mxGeometry x="370" y="-635" width="112" height="60" as="geometry" />
        </mxCell>
        <mxCell id="0tXTzAAkVqV_0_9QSMRX-181" style="edgeStyle=orthogonalEdgeStyle;rounded=0;orthogonalLoop=1;jettySize=auto;html=1;entryX=0.5;entryY=0;entryDx=0;entryDy=0;" edge="1" parent="1" source="0tXTzAAkVqV_0_9QSMRX-173" target="0tXTzAAkVqV_0_9QSMRX-179">
          <mxGeometry relative="1" as="geometry" />
        </mxCell>
        <mxCell id="0tXTzAAkVqV_0_9QSMRX-173" value="Error Message" style="strokeWidth=2;html=1;shape=mxgraph.flowchart.display;whiteSpace=wrap;" vertex="1" parent="1">
          <mxGeometry x="366" y="-710" width="112" height="60" as="geometry" />
        </mxCell>
        <mxCell id="0tXTzAAkVqV_0_9QSMRX-175" style="edgeStyle=orthogonalEdgeStyle;rounded=0;orthogonalLoop=1;jettySize=auto;html=1;entryX=1;entryY=0.5;entryDx=0;entryDy=0;entryPerimeter=0;exitX=0.5;exitY=0;exitDx=0;exitDy=0;" edge="1" parent="1" source="0tXTzAAkVqV_0_9QSMRX-170" target="0tXTzAAkVqV_0_9QSMRX-173">
          <mxGeometry relative="1" as="geometry" />
        </mxCell>
        <mxCell id="0tXTzAAkVqV_0_9QSMRX-177" value="failed" style="edgeLabel;html=1;align=center;verticalAlign=middle;resizable=0;points=[];" vertex="1" connectable="0" parent="0tXTzAAkVqV_0_9QSMRX-175">
          <mxGeometry x="0.2627" relative="1" as="geometry">
            <mxPoint as="offset" />
          </mxGeometry>
        </mxCell>
        <mxCell id="0tXTzAAkVqV_0_9QSMRX-182" style="edgeStyle=orthogonalEdgeStyle;rounded=0;orthogonalLoop=1;jettySize=auto;html=1;entryX=0;entryY=0.25;entryDx=0;entryDy=0;" edge="1" parent="1" source="0tXTzAAkVqV_0_9QSMRX-179" target="0tXTzAAkVqV_0_9QSMRX-55">
          <mxGeometry relative="1" as="geometry">
            <Array as="points">
              <mxPoint x="130" y="-605" />
              <mxPoint x="130" y="55" />
            </Array>
          </mxGeometry>
        </mxCell>
        <mxCell id="0tXTzAAkVqV_0_9QSMRX-179" value="redirect dashboard" style="shape=process;whiteSpace=wrap;html=1;backgroundOutline=1;strokeWidth=2;" vertex="1" parent="1">
          <mxGeometry x="174" y="-635" width="120" height="60" as="geometry" />
        </mxCell>
      </root>
    </mxGraphModel>
  </diagram>
</mxfile>
